M48
; DRILL file {KiCad 9.0.5} date 2025-11-20T14:08:08-0500
; FORMAT={-:-/ absolute / metric / decimal}
; #@! TF.CreationDate,2025-11-20T14:08:08-05:00
; #@! TF.GenerationSoftware,Kicad,Pcbnew,9.0.5
; #@! TF.FileFunction,Plated,1,2,PTH
FMAT,2
METRIC
; #@! TA.AperFunction,Plated,PTH,ViaDrill
T1C0.300
; #@! TA.AperFunction,Plated,PTH,ComponentDrill
T2C0.800
; #@! TA.AperFunction,Plated,PTH,ComponentDrill
T3C0.900
; #@! TA.AperFunction,Plated,PTH,ComponentDrill
T4C1.000
; #@! TA.AperFunction,Plated,PTH,ComponentDrill
T5C1.100
; #@! TA.AperFunction,Plated,PTH,ComponentDrill
T6C1.300
; #@! TA.AperFunction,Plated,PTH,ComponentDrill
T7C3.200
%
G90
G05
T1
X120.5Y-43.5
X120.5Y-58.0
X120.5Y-72.5
X120.5Y-89.0
X133.5Y-117.0
X158.84Y-119.0
X162.34Y-118.0
X164.34Y-117.0
X169.1Y-115.5
X172.84Y-114.496
X174.34Y-119.0
X176.18Y-113.5
X178.34Y-118.0
X181.84Y-117.0
X185.84Y-115.5
X189.34Y-114.5
X192.84Y-113.5
T2
X168.23Y-133.062
X168.23Y-135.062
X168.23Y-137.062
X170.23Y-133.062
X170.23Y-135.062
X170.23Y-137.062
X182.47Y-130.61
X182.47Y-133.15
T3
X120.535Y-35.582
X120.535Y-50.464
X120.535Y-65.345
X120.535Y-80.226
X120.535Y-95.108
X120.535Y-109.989
X123.075Y-35.582
X123.075Y-50.464
X123.075Y-65.345
X123.075Y-80.226
X123.075Y-95.108
X123.075Y-109.989
T4
X126.0Y-149.235
X126.0Y-151.775
X139.735Y-78.644
X139.735Y-93.525
X139.735Y-108.407
X139.76Y-34.0
X139.76Y-48.881
X139.76Y-63.763
X141.12Y-81.484
X141.12Y-96.365
X141.12Y-111.247
X141.145Y-36.84
X141.145Y-51.721
X141.145Y-66.603
X142.505Y-78.644
X142.505Y-93.525
X142.505Y-108.407
X142.53Y-34.0
X142.53Y-48.881
X142.53Y-63.763
X143.89Y-81.484
X143.89Y-96.365
X143.89Y-111.247
X143.915Y-36.84
X143.915Y-51.721
X143.915Y-66.603
X145.275Y-78.644
X145.275Y-93.525
X145.275Y-108.407
X145.3Y-34.0
X145.3Y-48.881
X145.3Y-63.763
X146.66Y-81.484
X146.66Y-96.365
X146.66Y-111.247
X146.685Y-36.84
X146.685Y-51.721
X146.685Y-66.603
X148.045Y-78.644
X148.045Y-93.525
X148.045Y-108.407
X148.07Y-34.0
X148.07Y-48.881
X148.07Y-63.763
X149.43Y-81.484
X149.43Y-96.365
X149.43Y-111.247
X149.455Y-36.84
X149.455Y-51.721
X149.455Y-66.603
X150.815Y-78.644
X150.815Y-93.525
X150.815Y-108.407
X150.84Y-34.0
X150.84Y-48.881
X150.84Y-63.763
X152.2Y-81.484
X152.2Y-96.365
X152.2Y-111.247
X152.225Y-36.84
X152.225Y-51.721
X152.225Y-66.603
X153.585Y-78.644
X153.585Y-93.525
X153.585Y-108.407
X153.61Y-34.0
X153.61Y-48.881
X153.61Y-63.763
X154.97Y-81.484
X154.97Y-96.365
X154.97Y-111.247
X154.995Y-36.84
X154.995Y-51.721
X154.995Y-66.603
X156.355Y-78.644
X156.355Y-93.525
X156.355Y-108.407
X156.38Y-34.0
X156.38Y-48.881
X156.38Y-63.763
X157.74Y-81.484
X157.74Y-96.365
X157.74Y-111.247
X157.765Y-36.84
X157.765Y-51.721
X157.765Y-66.603
X159.125Y-78.644
X159.125Y-93.525
X159.125Y-108.407
X159.15Y-34.0
X159.15Y-48.881
X159.15Y-63.763
X160.51Y-81.484
X160.51Y-96.365
X160.51Y-111.247
X160.535Y-36.84
X160.535Y-51.721
X160.535Y-66.603
X161.895Y-78.644
X161.895Y-93.525
X161.895Y-108.407
X161.92Y-34.0
X161.92Y-48.881
X161.92Y-63.763
X163.28Y-81.484
X163.28Y-96.365
X163.28Y-111.247
X163.305Y-36.84
X163.305Y-51.721
X163.305Y-66.603
X164.665Y-78.644
X164.665Y-93.525
X164.665Y-108.407
X164.69Y-34.0
X164.69Y-48.881
X164.69Y-63.763
X166.05Y-81.484
X166.05Y-96.365
X166.05Y-111.247
X166.075Y-36.84
X166.075Y-51.721
X166.075Y-66.603
X167.435Y-78.644
X167.435Y-93.525
X167.435Y-108.407
X167.46Y-34.0
X167.46Y-48.881
X167.46Y-63.763
X168.82Y-81.484
X168.82Y-96.365
X168.82Y-111.247
X168.845Y-36.84
X168.845Y-51.721
X168.845Y-66.603
X170.205Y-78.644
X170.205Y-93.525
X170.205Y-108.407
X170.23Y-34.0
X170.23Y-48.881
X170.23Y-63.763
X171.59Y-81.484
X171.59Y-96.365
X171.59Y-111.247
X171.615Y-36.84
X171.615Y-51.721
X171.615Y-66.603
X172.975Y-78.644
X172.975Y-93.525
X172.975Y-108.407
X173.0Y-34.0
X173.0Y-48.881
X173.0Y-63.763
T5
X124.78Y-124.26
X124.78Y-139.5
X127.32Y-124.26
X127.32Y-139.5
X129.86Y-124.26
X129.86Y-139.5
X132.4Y-124.26
X132.4Y-139.5
X134.94Y-124.26
X134.94Y-139.5
X137.48Y-124.26
X137.48Y-126.8
X137.48Y-129.34
X137.48Y-131.88
X137.48Y-134.42
X137.48Y-136.96
X137.48Y-139.5
X138.75Y-148.75
X138.75Y-153.25
X140.02Y-124.26
X140.02Y-139.5
X142.56Y-124.26
X142.56Y-139.5
X145.1Y-124.26
X145.1Y-139.5
X145.25Y-148.75
X145.25Y-153.25
X147.64Y-124.26
X147.64Y-139.5
X150.0Y-148.75
X150.0Y-153.25
X150.18Y-124.26
X150.18Y-139.5
X152.72Y-124.26
X152.72Y-139.5
X155.26Y-124.26
X155.26Y-139.5
X156.5Y-148.75
X156.5Y-153.25
X157.8Y-124.26
X157.8Y-139.5
X160.34Y-124.26
X160.34Y-139.5
X161.25Y-148.75
X161.25Y-153.25
X162.88Y-124.26
X162.88Y-139.5
X165.42Y-124.26
X165.42Y-139.5
X166.741Y-127.311
X167.75Y-148.75
X167.75Y-153.25
X167.96Y-124.26
X167.96Y-139.5
X169.281Y-127.311
X170.5Y-124.26
X170.5Y-139.5
X171.821Y-127.311
X173.04Y-124.26
X173.04Y-139.5
X174.361Y-127.311
X175.58Y-124.26
X175.58Y-139.5
X176.901Y-127.311
X178.12Y-124.26
X178.12Y-139.5
X180.66Y-124.26
X180.66Y-136.96
X180.66Y-139.5
X183.2Y-124.26
X183.2Y-139.5
T6
X114.672Y-147.955
X114.672Y-153.035
X190.5Y-147.92
X190.5Y-153.0
T7
X132.805Y-80.064
X132.805Y-94.945
X132.805Y-109.827
X132.83Y-35.42
X132.83Y-50.301
X132.83Y-65.183
X179.905Y-80.064
X179.905Y-94.945
X179.905Y-109.827
X179.93Y-35.42
X179.93Y-50.301
X179.93Y-65.183
M30
