%TF.GenerationSoftware,KiCad,Pcbnew,9.0.5*%
%TF.CreationDate,2025-11-20T14:08:09-05:00*%
%TF.ProjectId,Teensy_MotorShield,5465656e-7379-45f4-9d6f-746f72536869,rev?*%
%TF.SameCoordinates,Original*%
%TF.FileFunction,Legend,Top*%
%TF.FilePolarity,Positive*%
%FSLAX46Y46*%
G04 Gerber Fmt 4.6, Leading zero omitted, Abs format (unit mm)*
G04 Created by KiCad (PCBNEW 9.0.5) date 2025-11-20 14:08:09*
%MOMM*%
%LPD*%
G01*
G04 APERTURE LIST*
%ADD10C,0.300000*%
%ADD11C,0.200000*%
%ADD12C,0.250000*%
%ADD13C,0.150000*%
%ADD14C,0.120000*%
%ADD15C,0.100000*%
G04 APERTURE END LIST*
D10*
X125054510Y-35729400D02*
X126197368Y-35729400D01*
X125625939Y-36300828D02*
X125625939Y-35157971D01*
X182525600Y-146411653D02*
X182525600Y-148697368D01*
D11*
X129343409Y-152296993D02*
X129391028Y-152154136D01*
X129391028Y-152154136D02*
X129438647Y-152106517D01*
X129438647Y-152106517D02*
X129533885Y-152058898D01*
X129533885Y-152058898D02*
X129676742Y-152058898D01*
X129676742Y-152058898D02*
X129771980Y-152106517D01*
X129771980Y-152106517D02*
X129819600Y-152154136D01*
X129819600Y-152154136D02*
X129867219Y-152249374D01*
X129867219Y-152249374D02*
X129867219Y-152630326D01*
X129867219Y-152630326D02*
X128867219Y-152630326D01*
X128867219Y-152630326D02*
X128867219Y-152296993D01*
X128867219Y-152296993D02*
X128914838Y-152201755D01*
X128914838Y-152201755D02*
X128962457Y-152154136D01*
X128962457Y-152154136D02*
X129057695Y-152106517D01*
X129057695Y-152106517D02*
X129152933Y-152106517D01*
X129152933Y-152106517D02*
X129248171Y-152154136D01*
X129248171Y-152154136D02*
X129295790Y-152201755D01*
X129295790Y-152201755D02*
X129343409Y-152296993D01*
X129343409Y-152296993D02*
X129343409Y-152630326D01*
X129391028Y-151439850D02*
X129867219Y-151439850D01*
X128867219Y-151773183D02*
X129391028Y-151439850D01*
X129391028Y-151439850D02*
X128867219Y-151106517D01*
X129867219Y-150773183D02*
X128867219Y-150773183D01*
X128867219Y-150773183D02*
X128867219Y-150392231D01*
X128867219Y-150392231D02*
X128914838Y-150296993D01*
X128914838Y-150296993D02*
X128962457Y-150249374D01*
X128962457Y-150249374D02*
X129057695Y-150201755D01*
X129057695Y-150201755D02*
X129200552Y-150201755D01*
X129200552Y-150201755D02*
X129295790Y-150249374D01*
X129295790Y-150249374D02*
X129343409Y-150296993D01*
X129343409Y-150296993D02*
X129391028Y-150392231D01*
X129391028Y-150392231D02*
X129391028Y-150773183D01*
X129581504Y-149820802D02*
X129581504Y-149344612D01*
X129867219Y-149916040D02*
X128867219Y-149582707D01*
X128867219Y-149582707D02*
X129867219Y-149249374D01*
X129819600Y-148963659D02*
X129867219Y-148820802D01*
X129867219Y-148820802D02*
X129867219Y-148582707D01*
X129867219Y-148582707D02*
X129819600Y-148487469D01*
X129819600Y-148487469D02*
X129771980Y-148439850D01*
X129771980Y-148439850D02*
X129676742Y-148392231D01*
X129676742Y-148392231D02*
X129581504Y-148392231D01*
X129581504Y-148392231D02*
X129486266Y-148439850D01*
X129486266Y-148439850D02*
X129438647Y-148487469D01*
X129438647Y-148487469D02*
X129391028Y-148582707D01*
X129391028Y-148582707D02*
X129343409Y-148773183D01*
X129343409Y-148773183D02*
X129295790Y-148868421D01*
X129295790Y-148868421D02*
X129248171Y-148916040D01*
X129248171Y-148916040D02*
X129152933Y-148963659D01*
X129152933Y-148963659D02*
X129057695Y-148963659D01*
X129057695Y-148963659D02*
X128962457Y-148916040D01*
X128962457Y-148916040D02*
X128914838Y-148868421D01*
X128914838Y-148868421D02*
X128867219Y-148773183D01*
X128867219Y-148773183D02*
X128867219Y-148535088D01*
X128867219Y-148535088D02*
X128914838Y-148392231D01*
X129819600Y-148011278D02*
X129867219Y-147868421D01*
X129867219Y-147868421D02*
X129867219Y-147630326D01*
X129867219Y-147630326D02*
X129819600Y-147535088D01*
X129819600Y-147535088D02*
X129771980Y-147487469D01*
X129771980Y-147487469D02*
X129676742Y-147439850D01*
X129676742Y-147439850D02*
X129581504Y-147439850D01*
X129581504Y-147439850D02*
X129486266Y-147487469D01*
X129486266Y-147487469D02*
X129438647Y-147535088D01*
X129438647Y-147535088D02*
X129391028Y-147630326D01*
X129391028Y-147630326D02*
X129343409Y-147820802D01*
X129343409Y-147820802D02*
X129295790Y-147916040D01*
X129295790Y-147916040D02*
X129248171Y-147963659D01*
X129248171Y-147963659D02*
X129152933Y-148011278D01*
X129152933Y-148011278D02*
X129057695Y-148011278D01*
X129057695Y-148011278D02*
X128962457Y-147963659D01*
X128962457Y-147963659D02*
X128914838Y-147916040D01*
X128914838Y-147916040D02*
X128867219Y-147820802D01*
X128867219Y-147820802D02*
X128867219Y-147582707D01*
X128867219Y-147582707D02*
X128914838Y-147439850D01*
D10*
X125054510Y-50229400D02*
X126197368Y-50229400D01*
X125625939Y-50800828D02*
X125625939Y-49657971D01*
X181411653Y-153474400D02*
X183697368Y-153474400D01*
X182554510Y-154617257D02*
X182554510Y-152331542D01*
X125054510Y-95229400D02*
X126197368Y-95229400D01*
X125625939Y-95800828D02*
X125625939Y-94657971D01*
X125054510Y-65229400D02*
X126197368Y-65229400D01*
X125625939Y-65800828D02*
X125625939Y-64657971D01*
D12*
X130807330Y-25194619D02*
X131093044Y-25289857D01*
X131093044Y-25289857D02*
X131188282Y-25385095D01*
X131188282Y-25385095D02*
X131283520Y-25575571D01*
X131283520Y-25575571D02*
X131283520Y-25861285D01*
X131283520Y-25861285D02*
X131188282Y-26051761D01*
X131188282Y-26051761D02*
X131093044Y-26147000D01*
X131093044Y-26147000D02*
X130902568Y-26242238D01*
X130902568Y-26242238D02*
X130140663Y-26242238D01*
X130140663Y-26242238D02*
X130140663Y-24242238D01*
X130140663Y-24242238D02*
X130807330Y-24242238D01*
X130807330Y-24242238D02*
X130997806Y-24337476D01*
X130997806Y-24337476D02*
X131093044Y-24432714D01*
X131093044Y-24432714D02*
X131188282Y-24623190D01*
X131188282Y-24623190D02*
X131188282Y-24813666D01*
X131188282Y-24813666D02*
X131093044Y-25004142D01*
X131093044Y-25004142D02*
X130997806Y-25099380D01*
X130997806Y-25099380D02*
X130807330Y-25194619D01*
X130807330Y-25194619D02*
X130140663Y-25194619D01*
X132140663Y-26242238D02*
X132140663Y-24242238D01*
X134140663Y-24337476D02*
X133950187Y-24242238D01*
X133950187Y-24242238D02*
X133664473Y-24242238D01*
X133664473Y-24242238D02*
X133378758Y-24337476D01*
X133378758Y-24337476D02*
X133188282Y-24527952D01*
X133188282Y-24527952D02*
X133093044Y-24718428D01*
X133093044Y-24718428D02*
X132997806Y-25099380D01*
X132997806Y-25099380D02*
X132997806Y-25385095D01*
X132997806Y-25385095D02*
X133093044Y-25766047D01*
X133093044Y-25766047D02*
X133188282Y-25956523D01*
X133188282Y-25956523D02*
X133378758Y-26147000D01*
X133378758Y-26147000D02*
X133664473Y-26242238D01*
X133664473Y-26242238D02*
X133854949Y-26242238D01*
X133854949Y-26242238D02*
X134140663Y-26147000D01*
X134140663Y-26147000D02*
X134235901Y-26051761D01*
X134235901Y-26051761D02*
X134235901Y-25385095D01*
X134235901Y-25385095D02*
X133854949Y-25385095D01*
X135664473Y-24242238D02*
X135664473Y-25670809D01*
X135664473Y-25670809D02*
X135569234Y-25956523D01*
X135569234Y-25956523D02*
X135378758Y-26147000D01*
X135378758Y-26147000D02*
X135093044Y-26242238D01*
X135093044Y-26242238D02*
X134902568Y-26242238D01*
X136616854Y-25194619D02*
X137283521Y-25194619D01*
X137569235Y-26242238D02*
X136616854Y-26242238D01*
X136616854Y-26242238D02*
X136616854Y-24242238D01*
X136616854Y-24242238D02*
X137569235Y-24242238D01*
X138426378Y-25194619D02*
X139093045Y-25194619D01*
X139378759Y-26242238D02*
X138426378Y-26242238D01*
X138426378Y-26242238D02*
X138426378Y-24242238D01*
X138426378Y-24242238D02*
X139378759Y-24242238D01*
X140235902Y-26242238D02*
X140235902Y-24242238D01*
X140235902Y-24242238D02*
X140902569Y-25670809D01*
X140902569Y-25670809D02*
X141569235Y-24242238D01*
X141569235Y-24242238D02*
X141569235Y-26242238D01*
X142616854Y-24242238D02*
X142426378Y-24623190D01*
X143378759Y-26147000D02*
X143664473Y-26242238D01*
X143664473Y-26242238D02*
X144140664Y-26242238D01*
X144140664Y-26242238D02*
X144331140Y-26147000D01*
X144331140Y-26147000D02*
X144426378Y-26051761D01*
X144426378Y-26051761D02*
X144521616Y-25861285D01*
X144521616Y-25861285D02*
X144521616Y-25670809D01*
X144521616Y-25670809D02*
X144426378Y-25480333D01*
X144426378Y-25480333D02*
X144331140Y-25385095D01*
X144331140Y-25385095D02*
X144140664Y-25289857D01*
X144140664Y-25289857D02*
X143759711Y-25194619D01*
X143759711Y-25194619D02*
X143569235Y-25099380D01*
X143569235Y-25099380D02*
X143473997Y-25004142D01*
X143473997Y-25004142D02*
X143378759Y-24813666D01*
X143378759Y-24813666D02*
X143378759Y-24623190D01*
X143378759Y-24623190D02*
X143473997Y-24432714D01*
X143473997Y-24432714D02*
X143569235Y-24337476D01*
X143569235Y-24337476D02*
X143759711Y-24242238D01*
X143759711Y-24242238D02*
X144235902Y-24242238D01*
X144235902Y-24242238D02*
X144521616Y-24337476D01*
X147759712Y-24242238D02*
X147378759Y-24242238D01*
X147378759Y-24242238D02*
X147188283Y-24337476D01*
X147188283Y-24337476D02*
X147093045Y-24432714D01*
X147093045Y-24432714D02*
X146902569Y-24718428D01*
X146902569Y-24718428D02*
X146807331Y-25099380D01*
X146807331Y-25099380D02*
X146807331Y-25861285D01*
X146807331Y-25861285D02*
X146902569Y-26051761D01*
X146902569Y-26051761D02*
X146997807Y-26147000D01*
X146997807Y-26147000D02*
X147188283Y-26242238D01*
X147188283Y-26242238D02*
X147569236Y-26242238D01*
X147569236Y-26242238D02*
X147759712Y-26147000D01*
X147759712Y-26147000D02*
X147854950Y-26051761D01*
X147854950Y-26051761D02*
X147950188Y-25861285D01*
X147950188Y-25861285D02*
X147950188Y-25385095D01*
X147950188Y-25385095D02*
X147854950Y-25194619D01*
X147854950Y-25194619D02*
X147759712Y-25099380D01*
X147759712Y-25099380D02*
X147569236Y-25004142D01*
X147569236Y-25004142D02*
X147188283Y-25004142D01*
X147188283Y-25004142D02*
X146997807Y-25099380D01*
X146997807Y-25099380D02*
X146902569Y-25194619D01*
X146902569Y-25194619D02*
X146807331Y-25385095D01*
X148807331Y-26242238D02*
X148807331Y-24242238D01*
X148807331Y-24242238D02*
X149283521Y-24242238D01*
X149283521Y-24242238D02*
X149569236Y-24337476D01*
X149569236Y-24337476D02*
X149759712Y-24527952D01*
X149759712Y-24527952D02*
X149854950Y-24718428D01*
X149854950Y-24718428D02*
X149950188Y-25099380D01*
X149950188Y-25099380D02*
X149950188Y-25385095D01*
X149950188Y-25385095D02*
X149854950Y-25766047D01*
X149854950Y-25766047D02*
X149759712Y-25956523D01*
X149759712Y-25956523D02*
X149569236Y-26147000D01*
X149569236Y-26147000D02*
X149283521Y-26242238D01*
X149283521Y-26242238D02*
X148807331Y-26242238D01*
X151188283Y-24242238D02*
X151569236Y-24242238D01*
X151569236Y-24242238D02*
X151759712Y-24337476D01*
X151759712Y-24337476D02*
X151950188Y-24527952D01*
X151950188Y-24527952D02*
X152045426Y-24908904D01*
X152045426Y-24908904D02*
X152045426Y-25575571D01*
X152045426Y-25575571D02*
X151950188Y-25956523D01*
X151950188Y-25956523D02*
X151759712Y-26147000D01*
X151759712Y-26147000D02*
X151569236Y-26242238D01*
X151569236Y-26242238D02*
X151188283Y-26242238D01*
X151188283Y-26242238D02*
X150997807Y-26147000D01*
X150997807Y-26147000D02*
X150807331Y-25956523D01*
X150807331Y-25956523D02*
X150712093Y-25575571D01*
X150712093Y-25575571D02*
X150712093Y-24908904D01*
X150712093Y-24908904D02*
X150807331Y-24527952D01*
X150807331Y-24527952D02*
X150997807Y-24337476D01*
X150997807Y-24337476D02*
X151188283Y-24242238D01*
X153569236Y-25194619D02*
X152902569Y-25194619D01*
X152902569Y-26242238D02*
X152902569Y-24242238D01*
X152902569Y-24242238D02*
X153854950Y-24242238D01*
X157283522Y-26051761D02*
X157188284Y-26147000D01*
X157188284Y-26147000D02*
X156902570Y-26242238D01*
X156902570Y-26242238D02*
X156712094Y-26242238D01*
X156712094Y-26242238D02*
X156426379Y-26147000D01*
X156426379Y-26147000D02*
X156235903Y-25956523D01*
X156235903Y-25956523D02*
X156140665Y-25766047D01*
X156140665Y-25766047D02*
X156045427Y-25385095D01*
X156045427Y-25385095D02*
X156045427Y-25099380D01*
X156045427Y-25099380D02*
X156140665Y-24718428D01*
X156140665Y-24718428D02*
X156235903Y-24527952D01*
X156235903Y-24527952D02*
X156426379Y-24337476D01*
X156426379Y-24337476D02*
X156712094Y-24242238D01*
X156712094Y-24242238D02*
X156902570Y-24242238D01*
X156902570Y-24242238D02*
X157188284Y-24337476D01*
X157188284Y-24337476D02*
X157283522Y-24432714D01*
X158521617Y-24242238D02*
X158902570Y-24242238D01*
X158902570Y-24242238D02*
X159093046Y-24337476D01*
X159093046Y-24337476D02*
X159283522Y-24527952D01*
X159283522Y-24527952D02*
X159378760Y-24908904D01*
X159378760Y-24908904D02*
X159378760Y-25575571D01*
X159378760Y-25575571D02*
X159283522Y-25956523D01*
X159283522Y-25956523D02*
X159093046Y-26147000D01*
X159093046Y-26147000D02*
X158902570Y-26242238D01*
X158902570Y-26242238D02*
X158521617Y-26242238D01*
X158521617Y-26242238D02*
X158331141Y-26147000D01*
X158331141Y-26147000D02*
X158140665Y-25956523D01*
X158140665Y-25956523D02*
X158045427Y-25575571D01*
X158045427Y-25575571D02*
X158045427Y-24908904D01*
X158045427Y-24908904D02*
X158140665Y-24527952D01*
X158140665Y-24527952D02*
X158331141Y-24337476D01*
X158331141Y-24337476D02*
X158521617Y-24242238D01*
X160235903Y-26242238D02*
X160235903Y-24242238D01*
X160235903Y-24242238D02*
X161378760Y-26242238D01*
X161378760Y-26242238D02*
X161378760Y-24242238D01*
X162045427Y-24242238D02*
X163188284Y-24242238D01*
X162616855Y-26242238D02*
X162616855Y-24242238D01*
X164997808Y-26242238D02*
X164331141Y-25289857D01*
X163854951Y-26242238D02*
X163854951Y-24242238D01*
X163854951Y-24242238D02*
X164616856Y-24242238D01*
X164616856Y-24242238D02*
X164807332Y-24337476D01*
X164807332Y-24337476D02*
X164902570Y-24432714D01*
X164902570Y-24432714D02*
X164997808Y-24623190D01*
X164997808Y-24623190D02*
X164997808Y-24908904D01*
X164997808Y-24908904D02*
X164902570Y-25099380D01*
X164902570Y-25099380D02*
X164807332Y-25194619D01*
X164807332Y-25194619D02*
X164616856Y-25289857D01*
X164616856Y-25289857D02*
X163854951Y-25289857D01*
X166235903Y-24242238D02*
X166616856Y-24242238D01*
X166616856Y-24242238D02*
X166807332Y-24337476D01*
X166807332Y-24337476D02*
X166997808Y-24527952D01*
X166997808Y-24527952D02*
X167093046Y-24908904D01*
X167093046Y-24908904D02*
X167093046Y-25575571D01*
X167093046Y-25575571D02*
X166997808Y-25956523D01*
X166997808Y-25956523D02*
X166807332Y-26147000D01*
X166807332Y-26147000D02*
X166616856Y-26242238D01*
X166616856Y-26242238D02*
X166235903Y-26242238D01*
X166235903Y-26242238D02*
X166045427Y-26147000D01*
X166045427Y-26147000D02*
X165854951Y-25956523D01*
X165854951Y-25956523D02*
X165759713Y-25575571D01*
X165759713Y-25575571D02*
X165759713Y-24908904D01*
X165759713Y-24908904D02*
X165854951Y-24527952D01*
X165854951Y-24527952D02*
X166045427Y-24337476D01*
X166045427Y-24337476D02*
X166235903Y-24242238D01*
X168902570Y-26242238D02*
X167950189Y-26242238D01*
X167950189Y-26242238D02*
X167950189Y-24242238D01*
X170521618Y-26242238D02*
X169569237Y-26242238D01*
X169569237Y-26242238D02*
X169569237Y-24242238D01*
X171188285Y-25194619D02*
X171854952Y-25194619D01*
X172140666Y-26242238D02*
X171188285Y-26242238D01*
X171188285Y-26242238D02*
X171188285Y-24242238D01*
X171188285Y-24242238D02*
X172140666Y-24242238D01*
X174140666Y-26242238D02*
X173473999Y-25289857D01*
X172997809Y-26242238D02*
X172997809Y-24242238D01*
X172997809Y-24242238D02*
X173759714Y-24242238D01*
X173759714Y-24242238D02*
X173950190Y-24337476D01*
X173950190Y-24337476D02*
X174045428Y-24432714D01*
X174045428Y-24432714D02*
X174140666Y-24623190D01*
X174140666Y-24623190D02*
X174140666Y-24908904D01*
X174140666Y-24908904D02*
X174045428Y-25099380D01*
X174045428Y-25099380D02*
X173950190Y-25194619D01*
X173950190Y-25194619D02*
X173759714Y-25289857D01*
X173759714Y-25289857D02*
X172997809Y-25289857D01*
X176235905Y-24242238D02*
X176902571Y-26242238D01*
X176902571Y-26242238D02*
X177569238Y-24242238D01*
X178140667Y-24432714D02*
X178235905Y-24337476D01*
X178235905Y-24337476D02*
X178426381Y-24242238D01*
X178426381Y-24242238D02*
X178902572Y-24242238D01*
X178902572Y-24242238D02*
X179093048Y-24337476D01*
X179093048Y-24337476D02*
X179188286Y-24432714D01*
X179188286Y-24432714D02*
X179283524Y-24623190D01*
X179283524Y-24623190D02*
X179283524Y-24813666D01*
X179283524Y-24813666D02*
X179188286Y-25099380D01*
X179188286Y-25099380D02*
X178045429Y-26242238D01*
X178045429Y-26242238D02*
X179283524Y-26242238D01*
X180140667Y-26051761D02*
X180235905Y-26147000D01*
X180235905Y-26147000D02*
X180140667Y-26242238D01*
X180140667Y-26242238D02*
X180045429Y-26147000D01*
X180045429Y-26147000D02*
X180140667Y-26051761D01*
X180140667Y-26051761D02*
X180140667Y-26242238D01*
X181474000Y-24242238D02*
X181664477Y-24242238D01*
X181664477Y-24242238D02*
X181854953Y-24337476D01*
X181854953Y-24337476D02*
X181950191Y-24432714D01*
X181950191Y-24432714D02*
X182045429Y-24623190D01*
X182045429Y-24623190D02*
X182140667Y-25004142D01*
X182140667Y-25004142D02*
X182140667Y-25480333D01*
X182140667Y-25480333D02*
X182045429Y-25861285D01*
X182045429Y-25861285D02*
X181950191Y-26051761D01*
X181950191Y-26051761D02*
X181854953Y-26147000D01*
X181854953Y-26147000D02*
X181664477Y-26242238D01*
X181664477Y-26242238D02*
X181474000Y-26242238D01*
X181474000Y-26242238D02*
X181283524Y-26147000D01*
X181283524Y-26147000D02*
X181188286Y-26051761D01*
X181188286Y-26051761D02*
X181093048Y-25861285D01*
X181093048Y-25861285D02*
X180997810Y-25480333D01*
X180997810Y-25480333D02*
X180997810Y-25004142D01*
X180997810Y-25004142D02*
X181093048Y-24623190D01*
X181093048Y-24623190D02*
X181188286Y-24432714D01*
X181188286Y-24432714D02*
X181283524Y-24337476D01*
X181283524Y-24337476D02*
X181474000Y-24242238D01*
D11*
X110869673Y-143843409D02*
X111203006Y-143843409D01*
X111345863Y-144367219D02*
X110869673Y-144367219D01*
X110869673Y-144367219D02*
X110869673Y-143367219D01*
X110869673Y-143367219D02*
X111345863Y-143367219D01*
X111774435Y-143986266D02*
X112536340Y-143986266D01*
X112964911Y-144319600D02*
X113107768Y-144367219D01*
X113107768Y-144367219D02*
X113345863Y-144367219D01*
X113345863Y-144367219D02*
X113441101Y-144319600D01*
X113441101Y-144319600D02*
X113488720Y-144271980D01*
X113488720Y-144271980D02*
X113536339Y-144176742D01*
X113536339Y-144176742D02*
X113536339Y-144081504D01*
X113536339Y-144081504D02*
X113488720Y-143986266D01*
X113488720Y-143986266D02*
X113441101Y-143938647D01*
X113441101Y-143938647D02*
X113345863Y-143891028D01*
X113345863Y-143891028D02*
X113155387Y-143843409D01*
X113155387Y-143843409D02*
X113060149Y-143795790D01*
X113060149Y-143795790D02*
X113012530Y-143748171D01*
X113012530Y-143748171D02*
X112964911Y-143652933D01*
X112964911Y-143652933D02*
X112964911Y-143557695D01*
X112964911Y-143557695D02*
X113012530Y-143462457D01*
X113012530Y-143462457D02*
X113060149Y-143414838D01*
X113060149Y-143414838D02*
X113155387Y-143367219D01*
X113155387Y-143367219D02*
X113393482Y-143367219D01*
X113393482Y-143367219D02*
X113536339Y-143414838D01*
X113822054Y-143367219D02*
X114393482Y-143367219D01*
X114107768Y-144367219D02*
X114107768Y-143367219D01*
X114917292Y-143367219D02*
X115107768Y-143367219D01*
X115107768Y-143367219D02*
X115203006Y-143414838D01*
X115203006Y-143414838D02*
X115298244Y-143510076D01*
X115298244Y-143510076D02*
X115345863Y-143700552D01*
X115345863Y-143700552D02*
X115345863Y-144033885D01*
X115345863Y-144033885D02*
X115298244Y-144224361D01*
X115298244Y-144224361D02*
X115203006Y-144319600D01*
X115203006Y-144319600D02*
X115107768Y-144367219D01*
X115107768Y-144367219D02*
X114917292Y-144367219D01*
X114917292Y-144367219D02*
X114822054Y-144319600D01*
X114822054Y-144319600D02*
X114726816Y-144224361D01*
X114726816Y-144224361D02*
X114679197Y-144033885D01*
X114679197Y-144033885D02*
X114679197Y-143700552D01*
X114679197Y-143700552D02*
X114726816Y-143510076D01*
X114726816Y-143510076D02*
X114822054Y-143414838D01*
X114822054Y-143414838D02*
X114917292Y-143367219D01*
X115774435Y-144367219D02*
X115774435Y-143367219D01*
X115774435Y-143367219D02*
X116155387Y-143367219D01*
X116155387Y-143367219D02*
X116250625Y-143414838D01*
X116250625Y-143414838D02*
X116298244Y-143462457D01*
X116298244Y-143462457D02*
X116345863Y-143557695D01*
X116345863Y-143557695D02*
X116345863Y-143700552D01*
X116345863Y-143700552D02*
X116298244Y-143795790D01*
X116298244Y-143795790D02*
X116250625Y-143843409D01*
X116250625Y-143843409D02*
X116155387Y-143891028D01*
X116155387Y-143891028D02*
X115774435Y-143891028D01*
X117822054Y-144748171D02*
X117774435Y-144700552D01*
X117774435Y-144700552D02*
X117679197Y-144557695D01*
X117679197Y-144557695D02*
X117631578Y-144462457D01*
X117631578Y-144462457D02*
X117583959Y-144319600D01*
X117583959Y-144319600D02*
X117536340Y-144081504D01*
X117536340Y-144081504D02*
X117536340Y-143891028D01*
X117536340Y-143891028D02*
X117583959Y-143652933D01*
X117583959Y-143652933D02*
X117631578Y-143510076D01*
X117631578Y-143510076D02*
X117679197Y-143414838D01*
X117679197Y-143414838D02*
X117774435Y-143271980D01*
X117774435Y-143271980D02*
X117822054Y-143224361D01*
X118203007Y-144367219D02*
X118203007Y-143367219D01*
X118203007Y-143367219D02*
X118774435Y-144367219D01*
X118774435Y-144367219D02*
X118774435Y-143367219D01*
X119822054Y-144271980D02*
X119774435Y-144319600D01*
X119774435Y-144319600D02*
X119631578Y-144367219D01*
X119631578Y-144367219D02*
X119536340Y-144367219D01*
X119536340Y-144367219D02*
X119393483Y-144319600D01*
X119393483Y-144319600D02*
X119298245Y-144224361D01*
X119298245Y-144224361D02*
X119250626Y-144129123D01*
X119250626Y-144129123D02*
X119203007Y-143938647D01*
X119203007Y-143938647D02*
X119203007Y-143795790D01*
X119203007Y-143795790D02*
X119250626Y-143605314D01*
X119250626Y-143605314D02*
X119298245Y-143510076D01*
X119298245Y-143510076D02*
X119393483Y-143414838D01*
X119393483Y-143414838D02*
X119536340Y-143367219D01*
X119536340Y-143367219D02*
X119631578Y-143367219D01*
X119631578Y-143367219D02*
X119774435Y-143414838D01*
X119774435Y-143414838D02*
X119822054Y-143462457D01*
X120155388Y-144748171D02*
X120203007Y-144700552D01*
X120203007Y-144700552D02*
X120298245Y-144557695D01*
X120298245Y-144557695D02*
X120345864Y-144462457D01*
X120345864Y-144462457D02*
X120393483Y-144319600D01*
X120393483Y-144319600D02*
X120441102Y-144081504D01*
X120441102Y-144081504D02*
X120441102Y-143891028D01*
X120441102Y-143891028D02*
X120393483Y-143652933D01*
X120393483Y-143652933D02*
X120345864Y-143510076D01*
X120345864Y-143510076D02*
X120298245Y-143414838D01*
X120298245Y-143414838D02*
X120203007Y-143271980D01*
X120203007Y-143271980D02*
X120155388Y-143224361D01*
D10*
X125054510Y-80229400D02*
X126197368Y-80229400D01*
X125625939Y-80800828D02*
X125625939Y-79657971D01*
X125054510Y-109729400D02*
X126197368Y-109729400D01*
X125625939Y-110300828D02*
X125625939Y-109157971D01*
X178443685Y-153516917D02*
X178372257Y-153445489D01*
X178372257Y-153445489D02*
X178300828Y-153302632D01*
X178300828Y-153302632D02*
X178300828Y-152945489D01*
X178300828Y-152945489D02*
X178372257Y-152802632D01*
X178372257Y-152802632D02*
X178443685Y-152731203D01*
X178443685Y-152731203D02*
X178586542Y-152659774D01*
X178586542Y-152659774D02*
X178729400Y-152659774D01*
X178729400Y-152659774D02*
X178943685Y-152731203D01*
X178943685Y-152731203D02*
X179800828Y-153588346D01*
X179800828Y-153588346D02*
X179800828Y-152659774D01*
X178800828Y-151374061D02*
X179800828Y-151374061D01*
X178229400Y-151731203D02*
X179300828Y-152088346D01*
X179300828Y-152088346D02*
X179300828Y-151159775D01*
X178300828Y-150802632D02*
X179800828Y-150302632D01*
X179800828Y-150302632D02*
X178300828Y-149802632D01*
X179800828Y-148159776D02*
X178300828Y-148159776D01*
X179800828Y-147445490D02*
X178300828Y-147445490D01*
X178300828Y-147445490D02*
X179800828Y-146588347D01*
X179800828Y-146588347D02*
X178300828Y-146588347D01*
D13*
X121066905Y-107483780D02*
X121066905Y-106483780D01*
X121066905Y-106483780D02*
X121305000Y-106483780D01*
X121305000Y-106483780D02*
X121447857Y-106531399D01*
X121447857Y-106531399D02*
X121543095Y-106626637D01*
X121543095Y-106626637D02*
X121590714Y-106721875D01*
X121590714Y-106721875D02*
X121638333Y-106912351D01*
X121638333Y-106912351D02*
X121638333Y-107055208D01*
X121638333Y-107055208D02*
X121590714Y-107245684D01*
X121590714Y-107245684D02*
X121543095Y-107340922D01*
X121543095Y-107340922D02*
X121447857Y-107436161D01*
X121447857Y-107436161D02*
X121305000Y-107483780D01*
X121305000Y-107483780D02*
X121066905Y-107483780D01*
X122495476Y-106483780D02*
X122305000Y-106483780D01*
X122305000Y-106483780D02*
X122209762Y-106531399D01*
X122209762Y-106531399D02*
X122162143Y-106579018D01*
X122162143Y-106579018D02*
X122066905Y-106721875D01*
X122066905Y-106721875D02*
X122019286Y-106912351D01*
X122019286Y-106912351D02*
X122019286Y-107293303D01*
X122019286Y-107293303D02*
X122066905Y-107388541D01*
X122066905Y-107388541D02*
X122114524Y-107436161D01*
X122114524Y-107436161D02*
X122209762Y-107483780D01*
X122209762Y-107483780D02*
X122400238Y-107483780D01*
X122400238Y-107483780D02*
X122495476Y-107436161D01*
X122495476Y-107436161D02*
X122543095Y-107388541D01*
X122543095Y-107388541D02*
X122590714Y-107293303D01*
X122590714Y-107293303D02*
X122590714Y-107055208D01*
X122590714Y-107055208D02*
X122543095Y-106959970D01*
X122543095Y-106959970D02*
X122495476Y-106912351D01*
X122495476Y-106912351D02*
X122400238Y-106864732D01*
X122400238Y-106864732D02*
X122209762Y-106864732D01*
X122209762Y-106864732D02*
X122114524Y-106912351D01*
X122114524Y-106912351D02*
X122066905Y-106959970D01*
X122066905Y-106959970D02*
X122019286Y-107055208D01*
X121066905Y-62839691D02*
X121066905Y-61839691D01*
X121066905Y-61839691D02*
X121305000Y-61839691D01*
X121305000Y-61839691D02*
X121447857Y-61887310D01*
X121447857Y-61887310D02*
X121543095Y-61982548D01*
X121543095Y-61982548D02*
X121590714Y-62077786D01*
X121590714Y-62077786D02*
X121638333Y-62268262D01*
X121638333Y-62268262D02*
X121638333Y-62411119D01*
X121638333Y-62411119D02*
X121590714Y-62601595D01*
X121590714Y-62601595D02*
X121543095Y-62696833D01*
X121543095Y-62696833D02*
X121447857Y-62792072D01*
X121447857Y-62792072D02*
X121305000Y-62839691D01*
X121305000Y-62839691D02*
X121066905Y-62839691D01*
X121971667Y-61839691D02*
X122590714Y-61839691D01*
X122590714Y-61839691D02*
X122257381Y-62220643D01*
X122257381Y-62220643D02*
X122400238Y-62220643D01*
X122400238Y-62220643D02*
X122495476Y-62268262D01*
X122495476Y-62268262D02*
X122543095Y-62315881D01*
X122543095Y-62315881D02*
X122590714Y-62411119D01*
X122590714Y-62411119D02*
X122590714Y-62649214D01*
X122590714Y-62649214D02*
X122543095Y-62744452D01*
X122543095Y-62744452D02*
X122495476Y-62792072D01*
X122495476Y-62792072D02*
X122400238Y-62839691D01*
X122400238Y-62839691D02*
X122114524Y-62839691D01*
X122114524Y-62839691D02*
X122019286Y-62792072D01*
X122019286Y-62792072D02*
X121971667Y-62744452D01*
X124124819Y-42666666D02*
X123648628Y-42999999D01*
X124124819Y-43238094D02*
X123124819Y-43238094D01*
X123124819Y-43238094D02*
X123124819Y-42857142D01*
X123124819Y-42857142D02*
X123172438Y-42761904D01*
X123172438Y-42761904D02*
X123220057Y-42714285D01*
X123220057Y-42714285D02*
X123315295Y-42666666D01*
X123315295Y-42666666D02*
X123458152Y-42666666D01*
X123458152Y-42666666D02*
X123553390Y-42714285D01*
X123553390Y-42714285D02*
X123601009Y-42761904D01*
X123601009Y-42761904D02*
X123648628Y-42857142D01*
X123648628Y-42857142D02*
X123648628Y-43238094D01*
X124124819Y-41714285D02*
X124124819Y-42285713D01*
X124124819Y-41999999D02*
X123124819Y-41999999D01*
X123124819Y-41999999D02*
X123267676Y-42095237D01*
X123267676Y-42095237D02*
X123362914Y-42190475D01*
X123362914Y-42190475D02*
X123410533Y-42285713D01*
X127284819Y-117616666D02*
X126808628Y-117949999D01*
X127284819Y-118188094D02*
X126284819Y-118188094D01*
X126284819Y-118188094D02*
X126284819Y-117807142D01*
X126284819Y-117807142D02*
X126332438Y-117711904D01*
X126332438Y-117711904D02*
X126380057Y-117664285D01*
X126380057Y-117664285D02*
X126475295Y-117616666D01*
X126475295Y-117616666D02*
X126618152Y-117616666D01*
X126618152Y-117616666D02*
X126713390Y-117664285D01*
X126713390Y-117664285D02*
X126761009Y-117711904D01*
X126761009Y-117711904D02*
X126808628Y-117807142D01*
X126808628Y-117807142D02*
X126808628Y-118188094D01*
X126284819Y-116759523D02*
X126284819Y-116949999D01*
X126284819Y-116949999D02*
X126332438Y-117045237D01*
X126332438Y-117045237D02*
X126380057Y-117092856D01*
X126380057Y-117092856D02*
X126522914Y-117188094D01*
X126522914Y-117188094D02*
X126713390Y-117235713D01*
X126713390Y-117235713D02*
X127094342Y-117235713D01*
X127094342Y-117235713D02*
X127189580Y-117188094D01*
X127189580Y-117188094D02*
X127237200Y-117140475D01*
X127237200Y-117140475D02*
X127284819Y-117045237D01*
X127284819Y-117045237D02*
X127284819Y-116854761D01*
X127284819Y-116854761D02*
X127237200Y-116759523D01*
X127237200Y-116759523D02*
X127189580Y-116711904D01*
X127189580Y-116711904D02*
X127094342Y-116664285D01*
X127094342Y-116664285D02*
X126856247Y-116664285D01*
X126856247Y-116664285D02*
X126761009Y-116711904D01*
X126761009Y-116711904D02*
X126713390Y-116759523D01*
X126713390Y-116759523D02*
X126665771Y-116854761D01*
X126665771Y-116854761D02*
X126665771Y-117045237D01*
X126665771Y-117045237D02*
X126713390Y-117140475D01*
X126713390Y-117140475D02*
X126761009Y-117188094D01*
X126761009Y-117188094D02*
X126856247Y-117235713D01*
X127784819Y-102166666D02*
X127308628Y-102499999D01*
X127784819Y-102738094D02*
X126784819Y-102738094D01*
X126784819Y-102738094D02*
X126784819Y-102357142D01*
X126784819Y-102357142D02*
X126832438Y-102261904D01*
X126832438Y-102261904D02*
X126880057Y-102214285D01*
X126880057Y-102214285D02*
X126975295Y-102166666D01*
X126975295Y-102166666D02*
X127118152Y-102166666D01*
X127118152Y-102166666D02*
X127213390Y-102214285D01*
X127213390Y-102214285D02*
X127261009Y-102261904D01*
X127261009Y-102261904D02*
X127308628Y-102357142D01*
X127308628Y-102357142D02*
X127308628Y-102738094D01*
X126784819Y-101261904D02*
X126784819Y-101738094D01*
X126784819Y-101738094D02*
X127261009Y-101785713D01*
X127261009Y-101785713D02*
X127213390Y-101738094D01*
X127213390Y-101738094D02*
X127165771Y-101642856D01*
X127165771Y-101642856D02*
X127165771Y-101404761D01*
X127165771Y-101404761D02*
X127213390Y-101309523D01*
X127213390Y-101309523D02*
X127261009Y-101261904D01*
X127261009Y-101261904D02*
X127356247Y-101214285D01*
X127356247Y-101214285D02*
X127594342Y-101214285D01*
X127594342Y-101214285D02*
X127689580Y-101261904D01*
X127689580Y-101261904D02*
X127737200Y-101309523D01*
X127737200Y-101309523D02*
X127784819Y-101404761D01*
X127784819Y-101404761D02*
X127784819Y-101642856D01*
X127784819Y-101642856D02*
X127737200Y-101738094D01*
X127737200Y-101738094D02*
X127689580Y-101785713D01*
X151940476Y-150931009D02*
X152083333Y-150978628D01*
X152083333Y-150978628D02*
X152130952Y-151026247D01*
X152130952Y-151026247D02*
X152178571Y-151121485D01*
X152178571Y-151121485D02*
X152178571Y-151264342D01*
X152178571Y-151264342D02*
X152130952Y-151359580D01*
X152130952Y-151359580D02*
X152083333Y-151407200D01*
X152083333Y-151407200D02*
X151988095Y-151454819D01*
X151988095Y-151454819D02*
X151607143Y-151454819D01*
X151607143Y-151454819D02*
X151607143Y-150454819D01*
X151607143Y-150454819D02*
X151940476Y-150454819D01*
X151940476Y-150454819D02*
X152035714Y-150502438D01*
X152035714Y-150502438D02*
X152083333Y-150550057D01*
X152083333Y-150550057D02*
X152130952Y-150645295D01*
X152130952Y-150645295D02*
X152130952Y-150740533D01*
X152130952Y-150740533D02*
X152083333Y-150835771D01*
X152083333Y-150835771D02*
X152035714Y-150883390D01*
X152035714Y-150883390D02*
X151940476Y-150931009D01*
X151940476Y-150931009D02*
X151607143Y-150931009D01*
X152464286Y-150454819D02*
X153035714Y-150454819D01*
X152750000Y-151454819D02*
X152750000Y-150454819D01*
X153369048Y-151454819D02*
X153369048Y-150454819D01*
X153369048Y-150454819D02*
X153940476Y-151454819D01*
X153940476Y-151454819D02*
X153940476Y-150454819D01*
X154369048Y-150550057D02*
X154416667Y-150502438D01*
X154416667Y-150502438D02*
X154511905Y-150454819D01*
X154511905Y-150454819D02*
X154750000Y-150454819D01*
X154750000Y-150454819D02*
X154845238Y-150502438D01*
X154845238Y-150502438D02*
X154892857Y-150550057D01*
X154892857Y-150550057D02*
X154940476Y-150645295D01*
X154940476Y-150645295D02*
X154940476Y-150740533D01*
X154940476Y-150740533D02*
X154892857Y-150883390D01*
X154892857Y-150883390D02*
X154321429Y-151454819D01*
X154321429Y-151454819D02*
X154940476Y-151454819D01*
X154593095Y-87804556D02*
X155069285Y-87804556D01*
X154497857Y-88090271D02*
X154831190Y-87090271D01*
X154831190Y-87090271D02*
X155164523Y-88090271D01*
X155402619Y-88090271D02*
X155926428Y-87423604D01*
X155402619Y-87423604D02*
X155926428Y-88090271D01*
X156307381Y-88090271D02*
X156307381Y-87423604D01*
X156307381Y-87090271D02*
X156259762Y-87137890D01*
X156259762Y-87137890D02*
X156307381Y-87185509D01*
X156307381Y-87185509D02*
X156355000Y-87137890D01*
X156355000Y-87137890D02*
X156307381Y-87090271D01*
X156307381Y-87090271D02*
X156307381Y-87185509D01*
X156735952Y-88042652D02*
X156831190Y-88090271D01*
X156831190Y-88090271D02*
X157021666Y-88090271D01*
X157021666Y-88090271D02*
X157116904Y-88042652D01*
X157116904Y-88042652D02*
X157164523Y-87947413D01*
X157164523Y-87947413D02*
X157164523Y-87899794D01*
X157164523Y-87899794D02*
X157116904Y-87804556D01*
X157116904Y-87804556D02*
X157021666Y-87756937D01*
X157021666Y-87756937D02*
X156878809Y-87756937D01*
X156878809Y-87756937D02*
X156783571Y-87709318D01*
X156783571Y-87709318D02*
X156735952Y-87614080D01*
X156735952Y-87614080D02*
X156735952Y-87566461D01*
X156735952Y-87566461D02*
X156783571Y-87471223D01*
X156783571Y-87471223D02*
X156878809Y-87423604D01*
X156878809Y-87423604D02*
X157021666Y-87423604D01*
X157021666Y-87423604D02*
X157116904Y-87471223D01*
X158069285Y-87090271D02*
X157593095Y-87090271D01*
X157593095Y-87090271D02*
X157545476Y-87566461D01*
X157545476Y-87566461D02*
X157593095Y-87518842D01*
X157593095Y-87518842D02*
X157688333Y-87471223D01*
X157688333Y-87471223D02*
X157926428Y-87471223D01*
X157926428Y-87471223D02*
X158021666Y-87518842D01*
X158021666Y-87518842D02*
X158069285Y-87566461D01*
X158069285Y-87566461D02*
X158116904Y-87661699D01*
X158116904Y-87661699D02*
X158116904Y-87899794D01*
X158116904Y-87899794D02*
X158069285Y-87995032D01*
X158069285Y-87995032D02*
X158021666Y-88042652D01*
X158021666Y-88042652D02*
X157926428Y-88090271D01*
X157926428Y-88090271D02*
X157688333Y-88090271D01*
X157688333Y-88090271D02*
X157593095Y-88042652D01*
X157593095Y-88042652D02*
X157545476Y-87995032D01*
X163190476Y-150931009D02*
X163333333Y-150978628D01*
X163333333Y-150978628D02*
X163380952Y-151026247D01*
X163380952Y-151026247D02*
X163428571Y-151121485D01*
X163428571Y-151121485D02*
X163428571Y-151264342D01*
X163428571Y-151264342D02*
X163380952Y-151359580D01*
X163380952Y-151359580D02*
X163333333Y-151407200D01*
X163333333Y-151407200D02*
X163238095Y-151454819D01*
X163238095Y-151454819D02*
X162857143Y-151454819D01*
X162857143Y-151454819D02*
X162857143Y-150454819D01*
X162857143Y-150454819D02*
X163190476Y-150454819D01*
X163190476Y-150454819D02*
X163285714Y-150502438D01*
X163285714Y-150502438D02*
X163333333Y-150550057D01*
X163333333Y-150550057D02*
X163380952Y-150645295D01*
X163380952Y-150645295D02*
X163380952Y-150740533D01*
X163380952Y-150740533D02*
X163333333Y-150835771D01*
X163333333Y-150835771D02*
X163285714Y-150883390D01*
X163285714Y-150883390D02*
X163190476Y-150931009D01*
X163190476Y-150931009D02*
X162857143Y-150931009D01*
X163714286Y-150454819D02*
X164285714Y-150454819D01*
X164000000Y-151454819D02*
X164000000Y-150454819D01*
X164619048Y-151454819D02*
X164619048Y-150454819D01*
X164619048Y-150454819D02*
X165190476Y-151454819D01*
X165190476Y-151454819D02*
X165190476Y-150454819D01*
X165571429Y-150454819D02*
X166190476Y-150454819D01*
X166190476Y-150454819D02*
X165857143Y-150835771D01*
X165857143Y-150835771D02*
X166000000Y-150835771D01*
X166000000Y-150835771D02*
X166095238Y-150883390D01*
X166095238Y-150883390D02*
X166142857Y-150931009D01*
X166142857Y-150931009D02*
X166190476Y-151026247D01*
X166190476Y-151026247D02*
X166190476Y-151264342D01*
X166190476Y-151264342D02*
X166142857Y-151359580D01*
X166142857Y-151359580D02*
X166095238Y-151407200D01*
X166095238Y-151407200D02*
X166000000Y-151454819D01*
X166000000Y-151454819D02*
X165714286Y-151454819D01*
X165714286Y-151454819D02*
X165619048Y-151407200D01*
X165619048Y-151407200D02*
X165571429Y-151359580D01*
X154618095Y-28279104D02*
X155094285Y-28279104D01*
X154522857Y-28564819D02*
X154856190Y-27564819D01*
X154856190Y-27564819D02*
X155189523Y-28564819D01*
X155427619Y-28564819D02*
X155951428Y-27898152D01*
X155427619Y-27898152D02*
X155951428Y-28564819D01*
X156332381Y-28564819D02*
X156332381Y-27898152D01*
X156332381Y-27564819D02*
X156284762Y-27612438D01*
X156284762Y-27612438D02*
X156332381Y-27660057D01*
X156332381Y-27660057D02*
X156380000Y-27612438D01*
X156380000Y-27612438D02*
X156332381Y-27564819D01*
X156332381Y-27564819D02*
X156332381Y-27660057D01*
X156760952Y-28517200D02*
X156856190Y-28564819D01*
X156856190Y-28564819D02*
X157046666Y-28564819D01*
X157046666Y-28564819D02*
X157141904Y-28517200D01*
X157141904Y-28517200D02*
X157189523Y-28421961D01*
X157189523Y-28421961D02*
X157189523Y-28374342D01*
X157189523Y-28374342D02*
X157141904Y-28279104D01*
X157141904Y-28279104D02*
X157046666Y-28231485D01*
X157046666Y-28231485D02*
X156903809Y-28231485D01*
X156903809Y-28231485D02*
X156808571Y-28183866D01*
X156808571Y-28183866D02*
X156760952Y-28088628D01*
X156760952Y-28088628D02*
X156760952Y-28041009D01*
X156760952Y-28041009D02*
X156808571Y-27945771D01*
X156808571Y-27945771D02*
X156903809Y-27898152D01*
X156903809Y-27898152D02*
X157046666Y-27898152D01*
X157046666Y-27898152D02*
X157141904Y-27945771D01*
X158141904Y-28564819D02*
X157570476Y-28564819D01*
X157856190Y-28564819D02*
X157856190Y-27564819D01*
X157856190Y-27564819D02*
X157760952Y-27707676D01*
X157760952Y-27707676D02*
X157665714Y-27802914D01*
X157665714Y-27802914D02*
X157570476Y-27850533D01*
X140690476Y-150931009D02*
X140833333Y-150978628D01*
X140833333Y-150978628D02*
X140880952Y-151026247D01*
X140880952Y-151026247D02*
X140928571Y-151121485D01*
X140928571Y-151121485D02*
X140928571Y-151264342D01*
X140928571Y-151264342D02*
X140880952Y-151359580D01*
X140880952Y-151359580D02*
X140833333Y-151407200D01*
X140833333Y-151407200D02*
X140738095Y-151454819D01*
X140738095Y-151454819D02*
X140357143Y-151454819D01*
X140357143Y-151454819D02*
X140357143Y-150454819D01*
X140357143Y-150454819D02*
X140690476Y-150454819D01*
X140690476Y-150454819D02*
X140785714Y-150502438D01*
X140785714Y-150502438D02*
X140833333Y-150550057D01*
X140833333Y-150550057D02*
X140880952Y-150645295D01*
X140880952Y-150645295D02*
X140880952Y-150740533D01*
X140880952Y-150740533D02*
X140833333Y-150835771D01*
X140833333Y-150835771D02*
X140785714Y-150883390D01*
X140785714Y-150883390D02*
X140690476Y-150931009D01*
X140690476Y-150931009D02*
X140357143Y-150931009D01*
X141214286Y-150454819D02*
X141785714Y-150454819D01*
X141500000Y-151454819D02*
X141500000Y-150454819D01*
X142119048Y-151454819D02*
X142119048Y-150454819D01*
X142119048Y-150454819D02*
X142690476Y-151454819D01*
X142690476Y-151454819D02*
X142690476Y-150454819D01*
X143690476Y-151454819D02*
X143119048Y-151454819D01*
X143404762Y-151454819D02*
X143404762Y-150454819D01*
X143404762Y-150454819D02*
X143309524Y-150597676D01*
X143309524Y-150597676D02*
X143214286Y-150692914D01*
X143214286Y-150692914D02*
X143119048Y-150740533D01*
X121147319Y-150828333D02*
X121861604Y-150828333D01*
X121861604Y-150828333D02*
X122004461Y-150875952D01*
X122004461Y-150875952D02*
X122099700Y-150971190D01*
X122099700Y-150971190D02*
X122147319Y-151114047D01*
X122147319Y-151114047D02*
X122147319Y-151209285D01*
X122147319Y-149828333D02*
X122147319Y-150399761D01*
X122147319Y-150114047D02*
X121147319Y-150114047D01*
X121147319Y-150114047D02*
X121290176Y-150209285D01*
X121290176Y-150209285D02*
X121385414Y-150304523D01*
X121385414Y-150304523D02*
X121433033Y-150399761D01*
X153228095Y-141494819D02*
X153228095Y-142304342D01*
X153228095Y-142304342D02*
X153275714Y-142399580D01*
X153275714Y-142399580D02*
X153323333Y-142447200D01*
X153323333Y-142447200D02*
X153418571Y-142494819D01*
X153418571Y-142494819D02*
X153609047Y-142494819D01*
X153609047Y-142494819D02*
X153704285Y-142447200D01*
X153704285Y-142447200D02*
X153751904Y-142399580D01*
X153751904Y-142399580D02*
X153799523Y-142304342D01*
X153799523Y-142304342D02*
X153799523Y-141494819D01*
X154799523Y-142494819D02*
X154228095Y-142494819D01*
X154513809Y-142494819D02*
X154513809Y-141494819D01*
X154513809Y-141494819D02*
X154418571Y-141637676D01*
X154418571Y-141637676D02*
X154323333Y-141732914D01*
X154323333Y-141732914D02*
X154228095Y-141780533D01*
X121066905Y-33076965D02*
X121066905Y-32076965D01*
X121066905Y-32076965D02*
X121305000Y-32076965D01*
X121305000Y-32076965D02*
X121447857Y-32124584D01*
X121447857Y-32124584D02*
X121543095Y-32219822D01*
X121543095Y-32219822D02*
X121590714Y-32315060D01*
X121590714Y-32315060D02*
X121638333Y-32505536D01*
X121638333Y-32505536D02*
X121638333Y-32648393D01*
X121638333Y-32648393D02*
X121590714Y-32838869D01*
X121590714Y-32838869D02*
X121543095Y-32934107D01*
X121543095Y-32934107D02*
X121447857Y-33029346D01*
X121447857Y-33029346D02*
X121305000Y-33076965D01*
X121305000Y-33076965D02*
X121066905Y-33076965D01*
X122590714Y-33076965D02*
X122019286Y-33076965D01*
X122305000Y-33076965D02*
X122305000Y-32076965D01*
X122305000Y-32076965D02*
X122209762Y-32219822D01*
X122209762Y-32219822D02*
X122114524Y-32315060D01*
X122114524Y-32315060D02*
X122019286Y-32362679D01*
X121066905Y-92602417D02*
X121066905Y-91602417D01*
X121066905Y-91602417D02*
X121305000Y-91602417D01*
X121305000Y-91602417D02*
X121447857Y-91650036D01*
X121447857Y-91650036D02*
X121543095Y-91745274D01*
X121543095Y-91745274D02*
X121590714Y-91840512D01*
X121590714Y-91840512D02*
X121638333Y-92030988D01*
X121638333Y-92030988D02*
X121638333Y-92173845D01*
X121638333Y-92173845D02*
X121590714Y-92364321D01*
X121590714Y-92364321D02*
X121543095Y-92459559D01*
X121543095Y-92459559D02*
X121447857Y-92554798D01*
X121447857Y-92554798D02*
X121305000Y-92602417D01*
X121305000Y-92602417D02*
X121066905Y-92602417D01*
X122543095Y-91602417D02*
X122066905Y-91602417D01*
X122066905Y-91602417D02*
X122019286Y-92078607D01*
X122019286Y-92078607D02*
X122066905Y-92030988D01*
X122066905Y-92030988D02*
X122162143Y-91983369D01*
X122162143Y-91983369D02*
X122400238Y-91983369D01*
X122400238Y-91983369D02*
X122495476Y-92030988D01*
X122495476Y-92030988D02*
X122543095Y-92078607D01*
X122543095Y-92078607D02*
X122590714Y-92173845D01*
X122590714Y-92173845D02*
X122590714Y-92411940D01*
X122590714Y-92411940D02*
X122543095Y-92507178D01*
X122543095Y-92507178D02*
X122495476Y-92554798D01*
X122495476Y-92554798D02*
X122400238Y-92602417D01*
X122400238Y-92602417D02*
X122162143Y-92602417D01*
X122162143Y-92602417D02*
X122066905Y-92554798D01*
X122066905Y-92554798D02*
X122019286Y-92507178D01*
X124124819Y-74666666D02*
X123648628Y-74999999D01*
X124124819Y-75238094D02*
X123124819Y-75238094D01*
X123124819Y-75238094D02*
X123124819Y-74857142D01*
X123124819Y-74857142D02*
X123172438Y-74761904D01*
X123172438Y-74761904D02*
X123220057Y-74714285D01*
X123220057Y-74714285D02*
X123315295Y-74666666D01*
X123315295Y-74666666D02*
X123458152Y-74666666D01*
X123458152Y-74666666D02*
X123553390Y-74714285D01*
X123553390Y-74714285D02*
X123601009Y-74761904D01*
X123601009Y-74761904D02*
X123648628Y-74857142D01*
X123648628Y-74857142D02*
X123648628Y-75238094D01*
X123124819Y-74333332D02*
X123124819Y-73714285D01*
X123124819Y-73714285D02*
X123505771Y-74047618D01*
X123505771Y-74047618D02*
X123505771Y-73904761D01*
X123505771Y-73904761D02*
X123553390Y-73809523D01*
X123553390Y-73809523D02*
X123601009Y-73761904D01*
X123601009Y-73761904D02*
X123696247Y-73714285D01*
X123696247Y-73714285D02*
X123934342Y-73714285D01*
X123934342Y-73714285D02*
X124029580Y-73761904D01*
X124029580Y-73761904D02*
X124077200Y-73809523D01*
X124077200Y-73809523D02*
X124124819Y-73904761D01*
X124124819Y-73904761D02*
X124124819Y-74190475D01*
X124124819Y-74190475D02*
X124077200Y-74285713D01*
X124077200Y-74285713D02*
X124029580Y-74333332D01*
X125666666Y-153609819D02*
X125666666Y-154324104D01*
X125666666Y-154324104D02*
X125619047Y-154466961D01*
X125619047Y-154466961D02*
X125523809Y-154562200D01*
X125523809Y-154562200D02*
X125380952Y-154609819D01*
X125380952Y-154609819D02*
X125285714Y-154609819D01*
X126095238Y-153705057D02*
X126142857Y-153657438D01*
X126142857Y-153657438D02*
X126238095Y-153609819D01*
X126238095Y-153609819D02*
X126476190Y-153609819D01*
X126476190Y-153609819D02*
X126571428Y-153657438D01*
X126571428Y-153657438D02*
X126619047Y-153705057D01*
X126619047Y-153705057D02*
X126666666Y-153800295D01*
X126666666Y-153800295D02*
X126666666Y-153895533D01*
X126666666Y-153895533D02*
X126619047Y-154038390D01*
X126619047Y-154038390D02*
X126047619Y-154609819D01*
X126047619Y-154609819D02*
X126666666Y-154609819D01*
X125124819Y-90666666D02*
X124648628Y-90999999D01*
X125124819Y-91238094D02*
X124124819Y-91238094D01*
X124124819Y-91238094D02*
X124124819Y-90857142D01*
X124124819Y-90857142D02*
X124172438Y-90761904D01*
X124172438Y-90761904D02*
X124220057Y-90714285D01*
X124220057Y-90714285D02*
X124315295Y-90666666D01*
X124315295Y-90666666D02*
X124458152Y-90666666D01*
X124458152Y-90666666D02*
X124553390Y-90714285D01*
X124553390Y-90714285D02*
X124601009Y-90761904D01*
X124601009Y-90761904D02*
X124648628Y-90857142D01*
X124648628Y-90857142D02*
X124648628Y-91238094D01*
X124458152Y-89809523D02*
X125124819Y-89809523D01*
X124077200Y-90047618D02*
X124791485Y-90285713D01*
X124791485Y-90285713D02*
X124791485Y-89666666D01*
X125624819Y-60166666D02*
X125148628Y-60499999D01*
X125624819Y-60738094D02*
X124624819Y-60738094D01*
X124624819Y-60738094D02*
X124624819Y-60357142D01*
X124624819Y-60357142D02*
X124672438Y-60261904D01*
X124672438Y-60261904D02*
X124720057Y-60214285D01*
X124720057Y-60214285D02*
X124815295Y-60166666D01*
X124815295Y-60166666D02*
X124958152Y-60166666D01*
X124958152Y-60166666D02*
X125053390Y-60214285D01*
X125053390Y-60214285D02*
X125101009Y-60261904D01*
X125101009Y-60261904D02*
X125148628Y-60357142D01*
X125148628Y-60357142D02*
X125148628Y-60738094D01*
X124720057Y-59785713D02*
X124672438Y-59738094D01*
X124672438Y-59738094D02*
X124624819Y-59642856D01*
X124624819Y-59642856D02*
X124624819Y-59404761D01*
X124624819Y-59404761D02*
X124672438Y-59309523D01*
X124672438Y-59309523D02*
X124720057Y-59261904D01*
X124720057Y-59261904D02*
X124815295Y-59214285D01*
X124815295Y-59214285D02*
X124910533Y-59214285D01*
X124910533Y-59214285D02*
X125053390Y-59261904D01*
X125053390Y-59261904D02*
X125624819Y-59833332D01*
X125624819Y-59833332D02*
X125624819Y-59214285D01*
X121066905Y-47958328D02*
X121066905Y-46958328D01*
X121066905Y-46958328D02*
X121305000Y-46958328D01*
X121305000Y-46958328D02*
X121447857Y-47005947D01*
X121447857Y-47005947D02*
X121543095Y-47101185D01*
X121543095Y-47101185D02*
X121590714Y-47196423D01*
X121590714Y-47196423D02*
X121638333Y-47386899D01*
X121638333Y-47386899D02*
X121638333Y-47529756D01*
X121638333Y-47529756D02*
X121590714Y-47720232D01*
X121590714Y-47720232D02*
X121543095Y-47815470D01*
X121543095Y-47815470D02*
X121447857Y-47910709D01*
X121447857Y-47910709D02*
X121305000Y-47958328D01*
X121305000Y-47958328D02*
X121066905Y-47958328D01*
X122019286Y-47053566D02*
X122066905Y-47005947D01*
X122066905Y-47005947D02*
X122162143Y-46958328D01*
X122162143Y-46958328D02*
X122400238Y-46958328D01*
X122400238Y-46958328D02*
X122495476Y-47005947D01*
X122495476Y-47005947D02*
X122543095Y-47053566D01*
X122543095Y-47053566D02*
X122590714Y-47148804D01*
X122590714Y-47148804D02*
X122590714Y-47244042D01*
X122590714Y-47244042D02*
X122543095Y-47386899D01*
X122543095Y-47386899D02*
X121971667Y-47958328D01*
X121971667Y-47958328D02*
X122590714Y-47958328D01*
X154618095Y-43160467D02*
X155094285Y-43160467D01*
X154522857Y-43446182D02*
X154856190Y-42446182D01*
X154856190Y-42446182D02*
X155189523Y-43446182D01*
X155427619Y-43446182D02*
X155951428Y-42779515D01*
X155427619Y-42779515D02*
X155951428Y-43446182D01*
X156332381Y-43446182D02*
X156332381Y-42779515D01*
X156332381Y-42446182D02*
X156284762Y-42493801D01*
X156284762Y-42493801D02*
X156332381Y-42541420D01*
X156332381Y-42541420D02*
X156380000Y-42493801D01*
X156380000Y-42493801D02*
X156332381Y-42446182D01*
X156332381Y-42446182D02*
X156332381Y-42541420D01*
X156760952Y-43398563D02*
X156856190Y-43446182D01*
X156856190Y-43446182D02*
X157046666Y-43446182D01*
X157046666Y-43446182D02*
X157141904Y-43398563D01*
X157141904Y-43398563D02*
X157189523Y-43303324D01*
X157189523Y-43303324D02*
X157189523Y-43255705D01*
X157189523Y-43255705D02*
X157141904Y-43160467D01*
X157141904Y-43160467D02*
X157046666Y-43112848D01*
X157046666Y-43112848D02*
X156903809Y-43112848D01*
X156903809Y-43112848D02*
X156808571Y-43065229D01*
X156808571Y-43065229D02*
X156760952Y-42969991D01*
X156760952Y-42969991D02*
X156760952Y-42922372D01*
X156760952Y-42922372D02*
X156808571Y-42827134D01*
X156808571Y-42827134D02*
X156903809Y-42779515D01*
X156903809Y-42779515D02*
X157046666Y-42779515D01*
X157046666Y-42779515D02*
X157141904Y-42827134D01*
X157570476Y-42541420D02*
X157618095Y-42493801D01*
X157618095Y-42493801D02*
X157713333Y-42446182D01*
X157713333Y-42446182D02*
X157951428Y-42446182D01*
X157951428Y-42446182D02*
X158046666Y-42493801D01*
X158046666Y-42493801D02*
X158094285Y-42541420D01*
X158094285Y-42541420D02*
X158141904Y-42636658D01*
X158141904Y-42636658D02*
X158141904Y-42731896D01*
X158141904Y-42731896D02*
X158094285Y-42874753D01*
X158094285Y-42874753D02*
X157522857Y-43446182D01*
X157522857Y-43446182D02*
X158141904Y-43446182D01*
X121066905Y-77721054D02*
X121066905Y-76721054D01*
X121066905Y-76721054D02*
X121305000Y-76721054D01*
X121305000Y-76721054D02*
X121447857Y-76768673D01*
X121447857Y-76768673D02*
X121543095Y-76863911D01*
X121543095Y-76863911D02*
X121590714Y-76959149D01*
X121590714Y-76959149D02*
X121638333Y-77149625D01*
X121638333Y-77149625D02*
X121638333Y-77292482D01*
X121638333Y-77292482D02*
X121590714Y-77482958D01*
X121590714Y-77482958D02*
X121543095Y-77578196D01*
X121543095Y-77578196D02*
X121447857Y-77673435D01*
X121447857Y-77673435D02*
X121305000Y-77721054D01*
X121305000Y-77721054D02*
X121066905Y-77721054D01*
X122495476Y-77054387D02*
X122495476Y-77721054D01*
X122257381Y-76673435D02*
X122019286Y-77387720D01*
X122019286Y-77387720D02*
X122638333Y-77387720D01*
X182934819Y-150793333D02*
X183649104Y-150793333D01*
X183649104Y-150793333D02*
X183791961Y-150840952D01*
X183791961Y-150840952D02*
X183887200Y-150936190D01*
X183887200Y-150936190D02*
X183934819Y-151079047D01*
X183934819Y-151079047D02*
X183934819Y-151174285D01*
X182934819Y-150412380D02*
X182934819Y-149793333D01*
X182934819Y-149793333D02*
X183315771Y-150126666D01*
X183315771Y-150126666D02*
X183315771Y-149983809D01*
X183315771Y-149983809D02*
X183363390Y-149888571D01*
X183363390Y-149888571D02*
X183411009Y-149840952D01*
X183411009Y-149840952D02*
X183506247Y-149793333D01*
X183506247Y-149793333D02*
X183744342Y-149793333D01*
X183744342Y-149793333D02*
X183839580Y-149840952D01*
X183839580Y-149840952D02*
X183887200Y-149888571D01*
X183887200Y-149888571D02*
X183934819Y-149983809D01*
X183934819Y-149983809D02*
X183934819Y-150269523D01*
X183934819Y-150269523D02*
X183887200Y-150364761D01*
X183887200Y-150364761D02*
X183839580Y-150412380D01*
X154593095Y-102685919D02*
X155069285Y-102685919D01*
X154497857Y-102971634D02*
X154831190Y-101971634D01*
X154831190Y-101971634D02*
X155164523Y-102971634D01*
X155402619Y-102971634D02*
X155926428Y-102304967D01*
X155402619Y-102304967D02*
X155926428Y-102971634D01*
X156307381Y-102971634D02*
X156307381Y-102304967D01*
X156307381Y-101971634D02*
X156259762Y-102019253D01*
X156259762Y-102019253D02*
X156307381Y-102066872D01*
X156307381Y-102066872D02*
X156355000Y-102019253D01*
X156355000Y-102019253D02*
X156307381Y-101971634D01*
X156307381Y-101971634D02*
X156307381Y-102066872D01*
X156735952Y-102924015D02*
X156831190Y-102971634D01*
X156831190Y-102971634D02*
X157021666Y-102971634D01*
X157021666Y-102971634D02*
X157116904Y-102924015D01*
X157116904Y-102924015D02*
X157164523Y-102828776D01*
X157164523Y-102828776D02*
X157164523Y-102781157D01*
X157164523Y-102781157D02*
X157116904Y-102685919D01*
X157116904Y-102685919D02*
X157021666Y-102638300D01*
X157021666Y-102638300D02*
X156878809Y-102638300D01*
X156878809Y-102638300D02*
X156783571Y-102590681D01*
X156783571Y-102590681D02*
X156735952Y-102495443D01*
X156735952Y-102495443D02*
X156735952Y-102447824D01*
X156735952Y-102447824D02*
X156783571Y-102352586D01*
X156783571Y-102352586D02*
X156878809Y-102304967D01*
X156878809Y-102304967D02*
X157021666Y-102304967D01*
X157021666Y-102304967D02*
X157116904Y-102352586D01*
X158021666Y-101971634D02*
X157831190Y-101971634D01*
X157831190Y-101971634D02*
X157735952Y-102019253D01*
X157735952Y-102019253D02*
X157688333Y-102066872D01*
X157688333Y-102066872D02*
X157593095Y-102209729D01*
X157593095Y-102209729D02*
X157545476Y-102400205D01*
X157545476Y-102400205D02*
X157545476Y-102781157D01*
X157545476Y-102781157D02*
X157593095Y-102876395D01*
X157593095Y-102876395D02*
X157640714Y-102924015D01*
X157640714Y-102924015D02*
X157735952Y-102971634D01*
X157735952Y-102971634D02*
X157926428Y-102971634D01*
X157926428Y-102971634D02*
X158021666Y-102924015D01*
X158021666Y-102924015D02*
X158069285Y-102876395D01*
X158069285Y-102876395D02*
X158116904Y-102781157D01*
X158116904Y-102781157D02*
X158116904Y-102543062D01*
X158116904Y-102543062D02*
X158069285Y-102447824D01*
X158069285Y-102447824D02*
X158021666Y-102400205D01*
X158021666Y-102400205D02*
X157926428Y-102352586D01*
X157926428Y-102352586D02*
X157735952Y-102352586D01*
X157735952Y-102352586D02*
X157640714Y-102400205D01*
X157640714Y-102400205D02*
X157593095Y-102447824D01*
X157593095Y-102447824D02*
X157545476Y-102543062D01*
X154618095Y-58041830D02*
X155094285Y-58041830D01*
X154522857Y-58327545D02*
X154856190Y-57327545D01*
X154856190Y-57327545D02*
X155189523Y-58327545D01*
X155427619Y-58327545D02*
X155951428Y-57660878D01*
X155427619Y-57660878D02*
X155951428Y-58327545D01*
X156332381Y-58327545D02*
X156332381Y-57660878D01*
X156332381Y-57327545D02*
X156284762Y-57375164D01*
X156284762Y-57375164D02*
X156332381Y-57422783D01*
X156332381Y-57422783D02*
X156380000Y-57375164D01*
X156380000Y-57375164D02*
X156332381Y-57327545D01*
X156332381Y-57327545D02*
X156332381Y-57422783D01*
X156760952Y-58279926D02*
X156856190Y-58327545D01*
X156856190Y-58327545D02*
X157046666Y-58327545D01*
X157046666Y-58327545D02*
X157141904Y-58279926D01*
X157141904Y-58279926D02*
X157189523Y-58184687D01*
X157189523Y-58184687D02*
X157189523Y-58137068D01*
X157189523Y-58137068D02*
X157141904Y-58041830D01*
X157141904Y-58041830D02*
X157046666Y-57994211D01*
X157046666Y-57994211D02*
X156903809Y-57994211D01*
X156903809Y-57994211D02*
X156808571Y-57946592D01*
X156808571Y-57946592D02*
X156760952Y-57851354D01*
X156760952Y-57851354D02*
X156760952Y-57803735D01*
X156760952Y-57803735D02*
X156808571Y-57708497D01*
X156808571Y-57708497D02*
X156903809Y-57660878D01*
X156903809Y-57660878D02*
X157046666Y-57660878D01*
X157046666Y-57660878D02*
X157141904Y-57708497D01*
X157522857Y-57327545D02*
X158141904Y-57327545D01*
X158141904Y-57327545D02*
X157808571Y-57708497D01*
X157808571Y-57708497D02*
X157951428Y-57708497D01*
X157951428Y-57708497D02*
X158046666Y-57756116D01*
X158046666Y-57756116D02*
X158094285Y-57803735D01*
X158094285Y-57803735D02*
X158141904Y-57898973D01*
X158141904Y-57898973D02*
X158141904Y-58137068D01*
X158141904Y-58137068D02*
X158094285Y-58232306D01*
X158094285Y-58232306D02*
X158046666Y-58279926D01*
X158046666Y-58279926D02*
X157951428Y-58327545D01*
X157951428Y-58327545D02*
X157665714Y-58327545D01*
X157665714Y-58327545D02*
X157570476Y-58279926D01*
X157570476Y-58279926D02*
X157522857Y-58232306D01*
X154593095Y-72923193D02*
X155069285Y-72923193D01*
X154497857Y-73208908D02*
X154831190Y-72208908D01*
X154831190Y-72208908D02*
X155164523Y-73208908D01*
X155402619Y-73208908D02*
X155926428Y-72542241D01*
X155402619Y-72542241D02*
X155926428Y-73208908D01*
X156307381Y-73208908D02*
X156307381Y-72542241D01*
X156307381Y-72208908D02*
X156259762Y-72256527D01*
X156259762Y-72256527D02*
X156307381Y-72304146D01*
X156307381Y-72304146D02*
X156355000Y-72256527D01*
X156355000Y-72256527D02*
X156307381Y-72208908D01*
X156307381Y-72208908D02*
X156307381Y-72304146D01*
X156735952Y-73161289D02*
X156831190Y-73208908D01*
X156831190Y-73208908D02*
X157021666Y-73208908D01*
X157021666Y-73208908D02*
X157116904Y-73161289D01*
X157116904Y-73161289D02*
X157164523Y-73066050D01*
X157164523Y-73066050D02*
X157164523Y-73018431D01*
X157164523Y-73018431D02*
X157116904Y-72923193D01*
X157116904Y-72923193D02*
X157021666Y-72875574D01*
X157021666Y-72875574D02*
X156878809Y-72875574D01*
X156878809Y-72875574D02*
X156783571Y-72827955D01*
X156783571Y-72827955D02*
X156735952Y-72732717D01*
X156735952Y-72732717D02*
X156735952Y-72685098D01*
X156735952Y-72685098D02*
X156783571Y-72589860D01*
X156783571Y-72589860D02*
X156878809Y-72542241D01*
X156878809Y-72542241D02*
X157021666Y-72542241D01*
X157021666Y-72542241D02*
X157116904Y-72589860D01*
X158021666Y-72542241D02*
X158021666Y-73208908D01*
X157783571Y-72161289D02*
X157545476Y-72875574D01*
X157545476Y-72875574D02*
X158164523Y-72875574D01*
D14*
%TO.C,D6*%
X120245000Y-108752961D02*
X120245000Y-108908961D01*
X120245000Y-111068961D02*
X120245000Y-111224961D01*
X120245000Y-108753445D02*
G75*
G02*
X123476437Y-108908961I1560000J-1235516D01*
G01*
X120764039Y-108908961D02*
G75*
G02*
X122845961Y-108908961I1040961J-1080000D01*
G01*
X122845961Y-111068961D02*
G75*
G02*
X120764039Y-111068961I-1040961J1080000D01*
G01*
X123476437Y-111068961D02*
G75*
G02*
X120245000Y-111224477I-1671437J1080000D01*
G01*
%TO.C,D3*%
X120245000Y-64108872D02*
X120245000Y-64264872D01*
X120245000Y-66424872D02*
X120245000Y-66580872D01*
X120245000Y-64109356D02*
G75*
G02*
X123476437Y-64264872I1560000J-1235516D01*
G01*
X120764039Y-64264872D02*
G75*
G02*
X122845961Y-64264872I1040961J-1080000D01*
G01*
X122845961Y-66424872D02*
G75*
G02*
X120764039Y-66424872I-1040961J1080000D01*
G01*
X123476437Y-66424872D02*
G75*
G02*
X120245000Y-66580388I-1671437J1080000D01*
G01*
%TO.C,R1*%
X124590000Y-43227064D02*
X124590000Y-41772936D01*
X126410000Y-43227064D02*
X126410000Y-41772936D01*
%TO.C,R6*%
X124090000Y-116722936D02*
X124090000Y-118177064D01*
X125910000Y-116722936D02*
X125910000Y-118177064D01*
%TO.C,R5*%
X124590000Y-101272936D02*
X124590000Y-102727064D01*
X126410000Y-101272936D02*
X126410000Y-102727064D01*
%TO.C,BTN2*%
X149750000Y-150250000D02*
X149750000Y-151750000D01*
X151000000Y-154250000D02*
X155500000Y-154250000D01*
X155500000Y-147750000D02*
X151000000Y-147750000D01*
X156750000Y-151750000D02*
X156750000Y-150250000D01*
%TO.C,Axis5*%
X129745000Y-100195452D02*
X129745000Y-89695452D01*
X130805000Y-88635452D02*
X181905000Y-88635452D01*
X138317267Y-97583708D02*
X137488530Y-92883708D01*
X139123311Y-90935452D02*
X173586689Y-90935452D01*
X172725000Y-87741114D02*
X173225000Y-87741114D01*
X172757952Y-98955452D02*
X139952048Y-98955452D01*
X172975000Y-88174127D02*
X172725000Y-87741114D01*
X173225000Y-87741114D02*
X172975000Y-88174127D01*
X175221470Y-92883708D02*
X174392733Y-97583708D01*
X181905000Y-101255452D02*
X130805000Y-101255452D01*
X182965000Y-89695452D02*
X182965000Y-100195452D01*
X129745000Y-89695452D02*
G75*
G02*
X130805000Y-88635452I1060001J-1D01*
G01*
X130805000Y-101255452D02*
G75*
G02*
X129745000Y-100195452I1J1060001D01*
G01*
X137488530Y-92883708D02*
G75*
G02*
X139123311Y-90935452I1634781J288256D01*
G01*
X139952048Y-98955452D02*
G75*
G02*
X138317267Y-97583708I-1J1659999D01*
G01*
X173586689Y-90935452D02*
G75*
G02*
X175221471Y-92883708I1J-1660000D01*
G01*
X174392733Y-97583708D02*
G75*
G02*
X172757952Y-98955452I-1634780J288255D01*
G01*
X181905000Y-88635452D02*
G75*
G02*
X182965000Y-89695452I0J-1060000D01*
G01*
X182965000Y-100195452D02*
G75*
G02*
X181905000Y-101255452I-1060000J0D01*
G01*
%TO.C,BTN3*%
X161000000Y-150250000D02*
X161000000Y-151750000D01*
X162250000Y-154250000D02*
X166750000Y-154250000D01*
X166750000Y-147750000D02*
X162250000Y-147750000D01*
X168000000Y-151750000D02*
X168000000Y-150250000D01*
%TO.C,Axis1*%
X129770000Y-40670000D02*
X129770000Y-30170000D01*
X130830000Y-29110000D02*
X181930000Y-29110000D01*
X138342267Y-38058256D02*
X137513530Y-33358256D01*
X139148311Y-31410000D02*
X173611689Y-31410000D01*
X172750000Y-28215662D02*
X173250000Y-28215662D01*
X172782952Y-39430000D02*
X139977048Y-39430000D01*
X173000000Y-28648675D02*
X172750000Y-28215662D01*
X173250000Y-28215662D02*
X173000000Y-28648675D01*
X175246470Y-33358256D02*
X174417733Y-38058256D01*
X181930000Y-41730000D02*
X130830000Y-41730000D01*
X182990000Y-30170000D02*
X182990000Y-40670000D01*
X129770000Y-30170000D02*
G75*
G02*
X130830000Y-29110000I1060001J-1D01*
G01*
X130830000Y-41730000D02*
G75*
G02*
X129770000Y-40670000I1J1060001D01*
G01*
X137513530Y-33358256D02*
G75*
G02*
X139148311Y-31410000I1634781J288256D01*
G01*
X139977048Y-39430000D02*
G75*
G02*
X138342267Y-38058256I-1J1659999D01*
G01*
X173611689Y-31410000D02*
G75*
G02*
X175246471Y-33358256I1J-1660000D01*
G01*
X174417733Y-38058256D02*
G75*
G02*
X172782952Y-39430000I-1634780J288255D01*
G01*
X181930000Y-29110000D02*
G75*
G02*
X182990000Y-30170000I0J-1060000D01*
G01*
X182990000Y-40670000D02*
G75*
G02*
X181930000Y-41730000I-1060000J0D01*
G01*
%TO.C,BTN1*%
X138500000Y-150250000D02*
X138500000Y-151750000D01*
X139750000Y-154250000D02*
X144250000Y-154250000D01*
X144250000Y-147750000D02*
X139750000Y-147750000D01*
X145500000Y-151750000D02*
X145500000Y-150250000D01*
%TO.C,J1*%
X109252500Y-145295000D02*
X120692500Y-145295000D01*
X109252500Y-147655000D02*
X109252500Y-145295000D01*
X109252500Y-155695000D02*
X109252500Y-148255000D01*
X109872500Y-145295000D02*
X109872500Y-155695000D01*
X112372500Y-145295000D02*
X112372500Y-155695000D01*
X118572500Y-145295000D02*
X118572500Y-155695000D01*
X120692500Y-145295000D02*
X120692500Y-155695000D01*
X120692500Y-155695000D02*
X109252500Y-155695000D01*
X109252500Y-147955000D02*
X108642500Y-148395000D01*
X108642500Y-147515000D01*
X109252500Y-147955000D01*
G36*
X109252500Y-147955000D02*
G01*
X108642500Y-148395000D01*
X108642500Y-147515000D01*
X109252500Y-147955000D01*
G37*
D13*
%TO.C,U1*%
X123510000Y-122990000D02*
X184470000Y-122990000D01*
X123510000Y-136960000D02*
X124780000Y-136960000D01*
X123510000Y-138230000D02*
X136210000Y-138230000D01*
X123510000Y-140770000D02*
X123510000Y-122990000D01*
X124780000Y-126800000D02*
X123510000Y-126800000D01*
X124780000Y-136960000D02*
X124780000Y-126800000D01*
X136210000Y-125530000D02*
X123510000Y-125530000D01*
X136210000Y-138230000D02*
X136210000Y-125530000D01*
X140020000Y-130610000D02*
X143830000Y-130610000D01*
X140020000Y-133150000D02*
X140020000Y-130610000D01*
X143830000Y-130610000D02*
X143830000Y-133150000D01*
X143830000Y-133150000D02*
X140020000Y-133150000D01*
X148910000Y-125530000D02*
X148910000Y-138230000D01*
X148910000Y-138230000D02*
X161610000Y-138230000D01*
X161610000Y-125530000D02*
X148910000Y-125530000D01*
X161610000Y-138230000D02*
X161610000Y-125530000D01*
X165470800Y-126040800D02*
X178170800Y-126040800D01*
X165470800Y-128580800D02*
X165470800Y-126040800D01*
X167240000Y-131981600D02*
X167240000Y-138231600D01*
X167240000Y-138231600D02*
X171240000Y-138231600D01*
X171240000Y-131981600D02*
X167240000Y-131981600D01*
X171240000Y-137981600D02*
X171240000Y-131981600D01*
X171240000Y-138231600D02*
X171240000Y-137981600D01*
X175630800Y-128580800D02*
X175630800Y-126040800D01*
X178170800Y-126040800D02*
X178170800Y-128580800D01*
X178170800Y-128580800D02*
X165470800Y-128580800D01*
X178170800Y-128580800D02*
X175630800Y-128580800D01*
X179390000Y-128070000D02*
X179390000Y-135690000D01*
X179390000Y-128070000D02*
X184470000Y-128070000D01*
X179390000Y-135690000D02*
X184470000Y-135690000D01*
X184470000Y-122990000D02*
X184470000Y-140770000D01*
X184470000Y-128070000D02*
X185740000Y-128070000D01*
X184470000Y-140770000D02*
X123510000Y-140770000D01*
X185740000Y-128070000D02*
X185740000Y-135690000D01*
X185740000Y-135690000D02*
X184470000Y-135690000D01*
X142823026Y-131880000D02*
G75*
G02*
X141026974Y-131880000I-898026J0D01*
G01*
X141026974Y-131880000D02*
G75*
G02*
X142823026Y-131880000I898026J0D01*
G01*
D15*
X151301000Y-132314000D02*
X151047000Y-132568000D01*
X150793000Y-132187000D01*
X151047000Y-131933000D01*
X151301000Y-132314000D01*
G36*
X151301000Y-132314000D02*
G01*
X151047000Y-132568000D01*
X150793000Y-132187000D01*
X151047000Y-131933000D01*
X151301000Y-132314000D01*
G37*
X151682000Y-131933000D02*
X151428000Y-132187000D01*
X151174000Y-131806000D01*
X151428000Y-131552000D01*
X151682000Y-131933000D01*
G36*
X151682000Y-131933000D02*
G01*
X151428000Y-132187000D01*
X151174000Y-131806000D01*
X151428000Y-131552000D01*
X151682000Y-131933000D01*
G37*
X152063000Y-131552000D02*
X151809000Y-131806000D01*
X151555000Y-131425000D01*
X151809000Y-131171000D01*
X152063000Y-131552000D01*
G36*
X152063000Y-131552000D02*
G01*
X151809000Y-131806000D01*
X151555000Y-131425000D01*
X151809000Y-131171000D01*
X152063000Y-131552000D01*
G37*
X152444000Y-132060000D02*
X152190000Y-132314000D01*
X151936000Y-131933000D01*
X152190000Y-131679000D01*
X152444000Y-132060000D01*
G36*
X152444000Y-132060000D02*
G01*
X152190000Y-132314000D01*
X151936000Y-131933000D01*
X152190000Y-131679000D01*
X152444000Y-132060000D01*
G37*
X152825000Y-131679000D02*
X152571000Y-131933000D01*
X152317000Y-131552000D01*
X152571000Y-131298000D01*
X152825000Y-131679000D01*
G36*
X152825000Y-131679000D02*
G01*
X152571000Y-131933000D01*
X152317000Y-131552000D01*
X152571000Y-131298000D01*
X152825000Y-131679000D01*
G37*
X152825000Y-132568000D02*
X152571000Y-132822000D01*
X152317000Y-132441000D01*
X152571000Y-132187000D01*
X152825000Y-132568000D01*
G36*
X152825000Y-132568000D02*
G01*
X152571000Y-132822000D01*
X152317000Y-132441000D01*
X152571000Y-132187000D01*
X152825000Y-132568000D01*
G37*
X153206000Y-132187000D02*
X152952000Y-132441000D01*
X152698000Y-132060000D01*
X152952000Y-131806000D01*
X153206000Y-132187000D01*
G36*
X153206000Y-132187000D02*
G01*
X152952000Y-132441000D01*
X152698000Y-132060000D01*
X152952000Y-131806000D01*
X153206000Y-132187000D01*
G37*
X153587000Y-132695000D02*
X153333000Y-132949000D01*
X153079000Y-132568000D01*
X153333000Y-132314000D01*
X153587000Y-132695000D01*
G36*
X153587000Y-132695000D02*
G01*
X153333000Y-132949000D01*
X153079000Y-132568000D01*
X153333000Y-132314000D01*
X153587000Y-132695000D01*
G37*
D14*
%TO.C,D1*%
X120245000Y-34346146D02*
X120245000Y-34502146D01*
X120245000Y-36662146D02*
X120245000Y-36818146D01*
X120245000Y-34346630D02*
G75*
G02*
X123476437Y-34502146I1560000J-1235516D01*
G01*
X120764039Y-34502146D02*
G75*
G02*
X122845961Y-34502146I1040961J-1080000D01*
G01*
X122845961Y-36662146D02*
G75*
G02*
X120764039Y-36662146I-1040961J1080000D01*
G01*
X123476437Y-36662146D02*
G75*
G02*
X120245000Y-36817662I-1671437J1080000D01*
G01*
%TO.C,D5*%
X120245000Y-93871598D02*
X120245000Y-94027598D01*
X120245000Y-96187598D02*
X120245000Y-96343598D01*
X120245000Y-93872082D02*
G75*
G02*
X123476437Y-94027598I1560000J-1235516D01*
G01*
X120764039Y-94027598D02*
G75*
G02*
X122845961Y-94027598I1040961J-1080000D01*
G01*
X122845961Y-96187598D02*
G75*
G02*
X120764039Y-96187598I-1040961J1080000D01*
G01*
X123476437Y-96187598D02*
G75*
G02*
X120245000Y-96343114I-1671437J1080000D01*
G01*
%TO.C,R3*%
X124590000Y-75227064D02*
X124590000Y-73772936D01*
X126410000Y-75227064D02*
X126410000Y-73772936D01*
%TO.C,J2*%
X124620000Y-150505000D02*
X124620000Y-147855000D01*
X127380000Y-147855000D02*
X124620000Y-147855000D01*
X127380000Y-150505000D02*
X124620000Y-150505000D01*
X127380000Y-150505000D02*
X127380000Y-147855000D01*
X127380000Y-151775000D02*
X127380000Y-153155000D01*
X127380000Y-153155000D02*
X126000000Y-153155000D01*
%TO.C,R4*%
X125590000Y-91227064D02*
X125590000Y-89772936D01*
X127410000Y-91227064D02*
X127410000Y-89772936D01*
%TO.C,R2*%
X126090000Y-60727064D02*
X126090000Y-59272936D01*
X127910000Y-60727064D02*
X127910000Y-59272936D01*
%TO.C,D2*%
X120245000Y-49227509D02*
X120245000Y-49383509D01*
X120245000Y-51543509D02*
X120245000Y-51699509D01*
X120245000Y-49227993D02*
G75*
G02*
X123476437Y-49383509I1560000J-1235516D01*
G01*
X120764039Y-49383509D02*
G75*
G02*
X122845961Y-49383509I1040961J-1080000D01*
G01*
X122845961Y-51543509D02*
G75*
G02*
X120764039Y-51543509I-1040961J1080000D01*
G01*
X123476437Y-51543509D02*
G75*
G02*
X120245000Y-51699025I-1671437J1080000D01*
G01*
%TO.C,Axis2*%
X129770000Y-55551363D02*
X129770000Y-45051363D01*
X130830000Y-43991363D02*
X181930000Y-43991363D01*
X138342267Y-52939619D02*
X137513530Y-48239619D01*
X139148311Y-46291363D02*
X173611689Y-46291363D01*
X172750000Y-43097025D02*
X173250000Y-43097025D01*
X172782952Y-54311363D02*
X139977048Y-54311363D01*
X173000000Y-43530038D02*
X172750000Y-43097025D01*
X173250000Y-43097025D02*
X173000000Y-43530038D01*
X175246470Y-48239619D02*
X174417733Y-52939619D01*
X181930000Y-56611363D02*
X130830000Y-56611363D01*
X182990000Y-45051363D02*
X182990000Y-55551363D01*
X129770000Y-45051363D02*
G75*
G02*
X130830000Y-43991363I1060001J-1D01*
G01*
X130830000Y-56611363D02*
G75*
G02*
X129770000Y-55551363I1J1060001D01*
G01*
X137513530Y-48239619D02*
G75*
G02*
X139148311Y-46291363I1634781J288256D01*
G01*
X139977048Y-54311363D02*
G75*
G02*
X138342267Y-52939619I-1J1659999D01*
G01*
X173611689Y-46291363D02*
G75*
G02*
X175246471Y-48239619I1J-1660000D01*
G01*
X174417733Y-52939619D02*
G75*
G02*
X172782952Y-54311363I-1634780J288255D01*
G01*
X181930000Y-43991363D02*
G75*
G02*
X182990000Y-45051363I0J-1060000D01*
G01*
X182990000Y-55551363D02*
G75*
G02*
X181930000Y-56611363I-1060000J0D01*
G01*
%TO.C,D4*%
X120245000Y-78990235D02*
X120245000Y-79146235D01*
X120245000Y-81306235D02*
X120245000Y-81462235D01*
X120245000Y-78990719D02*
G75*
G02*
X123476437Y-79146235I1560000J-1235516D01*
G01*
X120764039Y-79146235D02*
G75*
G02*
X122845961Y-79146235I1040961J-1080000D01*
G01*
X122845961Y-81306235D02*
G75*
G02*
X120764039Y-81306235I-1040961J1080000D01*
G01*
X123476437Y-81306235D02*
G75*
G02*
X120245000Y-81461751I-1671437J1080000D01*
G01*
%TO.C,J3*%
X184480000Y-145260000D02*
X195920000Y-145260000D01*
X184480000Y-155660000D02*
X184480000Y-145260000D01*
X186600000Y-155660000D02*
X186600000Y-145260000D01*
X192800000Y-155660000D02*
X192800000Y-145260000D01*
X195300000Y-155660000D02*
X195300000Y-145260000D01*
X195920000Y-145260000D02*
X195920000Y-152700000D01*
X195920000Y-153300000D02*
X195920000Y-155660000D01*
X195920000Y-155660000D02*
X184480000Y-155660000D01*
X196530000Y-153440000D02*
X195920000Y-153000000D01*
X196530000Y-152560000D01*
X196530000Y-153440000D01*
G36*
X196530000Y-153440000D02*
G01*
X195920000Y-153000000D01*
X196530000Y-152560000D01*
X196530000Y-153440000D01*
G37*
%TO.C,Axis6*%
X129745000Y-115076815D02*
X129745000Y-104576815D01*
X130805000Y-103516815D02*
X181905000Y-103516815D01*
X138317267Y-112465071D02*
X137488530Y-107765071D01*
X139123311Y-105816815D02*
X173586689Y-105816815D01*
X172725000Y-102622477D02*
X173225000Y-102622477D01*
X172757952Y-113836815D02*
X139952048Y-113836815D01*
X172975000Y-103055490D02*
X172725000Y-102622477D01*
X173225000Y-102622477D02*
X172975000Y-103055490D01*
X175221470Y-107765071D02*
X174392733Y-112465071D01*
X181905000Y-116136815D02*
X130805000Y-116136815D01*
X182965000Y-104576815D02*
X182965000Y-115076815D01*
X129745000Y-104576815D02*
G75*
G02*
X130805000Y-103516815I1060001J-1D01*
G01*
X130805000Y-116136815D02*
G75*
G02*
X129745000Y-115076815I1J1060001D01*
G01*
X137488530Y-107765071D02*
G75*
G02*
X139123311Y-105816815I1634781J288256D01*
G01*
X139952048Y-113836815D02*
G75*
G02*
X138317267Y-112465071I-1J1659999D01*
G01*
X173586689Y-105816815D02*
G75*
G02*
X175221471Y-107765071I1J-1660000D01*
G01*
X174392733Y-112465071D02*
G75*
G02*
X172757952Y-113836815I-1634780J288255D01*
G01*
X181905000Y-103516815D02*
G75*
G02*
X182965000Y-104576815I0J-1060000D01*
G01*
X182965000Y-115076815D02*
G75*
G02*
X181905000Y-116136815I-1060000J0D01*
G01*
%TO.C,Axis3*%
X129770000Y-70432726D02*
X129770000Y-59932726D01*
X130830000Y-58872726D02*
X181930000Y-58872726D01*
X138342267Y-67820982D02*
X137513530Y-63120982D01*
X139148311Y-61172726D02*
X173611689Y-61172726D01*
X172750000Y-57978388D02*
X173250000Y-57978388D01*
X172782952Y-69192726D02*
X139977048Y-69192726D01*
X173000000Y-58411401D02*
X172750000Y-57978388D01*
X173250000Y-57978388D02*
X173000000Y-58411401D01*
X175246470Y-63120982D02*
X174417733Y-67820982D01*
X181930000Y-71492726D02*
X130830000Y-71492726D01*
X182990000Y-59932726D02*
X182990000Y-70432726D01*
X129770000Y-59932726D02*
G75*
G02*
X130830000Y-58872726I1060001J-1D01*
G01*
X130830000Y-71492726D02*
G75*
G02*
X129770000Y-70432726I1J1060001D01*
G01*
X137513530Y-63120982D02*
G75*
G02*
X139148311Y-61172726I1634781J288256D01*
G01*
X139977048Y-69192726D02*
G75*
G02*
X138342267Y-67820982I-1J1659999D01*
G01*
X173611689Y-61172726D02*
G75*
G02*
X175246471Y-63120982I1J-1660000D01*
G01*
X174417733Y-67820982D02*
G75*
G02*
X172782952Y-69192726I-1634780J288255D01*
G01*
X181930000Y-58872726D02*
G75*
G02*
X182990000Y-59932726I0J-1060000D01*
G01*
X182990000Y-70432726D02*
G75*
G02*
X181930000Y-71492726I-1060000J0D01*
G01*
%TO.C,Axis4*%
X129745000Y-85314089D02*
X129745000Y-74814089D01*
X130805000Y-73754089D02*
X181905000Y-73754089D01*
X138317267Y-82702345D02*
X137488530Y-78002345D01*
X139123311Y-76054089D02*
X173586689Y-76054089D01*
X172725000Y-72859751D02*
X173225000Y-72859751D01*
X172757952Y-84074089D02*
X139952048Y-84074089D01*
X172975000Y-73292764D02*
X172725000Y-72859751D01*
X173225000Y-72859751D02*
X172975000Y-73292764D01*
X175221470Y-78002345D02*
X174392733Y-82702345D01*
X181905000Y-86374089D02*
X130805000Y-86374089D01*
X182965000Y-74814089D02*
X182965000Y-85314089D01*
X129745000Y-74814089D02*
G75*
G02*
X130805000Y-73754089I1060001J-1D01*
G01*
X130805000Y-86374089D02*
G75*
G02*
X129745000Y-85314089I1J1060001D01*
G01*
X137488530Y-78002345D02*
G75*
G02*
X139123311Y-76054089I1634781J288256D01*
G01*
X139952048Y-84074089D02*
G75*
G02*
X138317267Y-82702345I-1J1659999D01*
G01*
X173586689Y-76054089D02*
G75*
G02*
X175221471Y-78002345I1J-1660000D01*
G01*
X174392733Y-82702345D02*
G75*
G02*
X172757952Y-84074089I-1634780J288255D01*
G01*
X181905000Y-73754089D02*
G75*
G02*
X182965000Y-74814089I0J-1060000D01*
G01*
X182965000Y-85314089D02*
G75*
G02*
X181905000Y-86374089I-1060000J0D01*
G01*
%TD*%
M02*
