%TF.GenerationSoftware,KiCad,Pcbnew,9.0.5*%
%TF.CreationDate,2025-11-20T14:08:09-05:00*%
%TF.ProjectId,Teensy_MotorShield,5465656e-7379-45f4-9d6f-746f72536869,rev?*%
%TF.SameCoordinates,Original*%
%TF.FileFunction,Soldermask,Bot*%
%TF.FilePolarity,Negative*%
%FSLAX46Y46*%
G04 Gerber Fmt 4.6, Leading zero omitted, Abs format (unit mm)*
G04 Created by KiCad (PCBNEW 9.0.5) date 2025-11-20 14:08:09*
%MOMM*%
%LPD*%
G01*
G04 APERTURE LIST*
G04 Aperture macros list*
%AMRoundRect*
0 Rectangle with rounded corners*
0 $1 Rounding radius*
0 $2 $3 $4 $5 $6 $7 $8 $9 X,Y pos of 4 corners*
0 Add a 4 corners polygon primitive as box body*
4,1,4,$2,$3,$4,$5,$6,$7,$8,$9,$2,$3,0*
0 Add four circle primitives for the rounded corners*
1,1,$1+$1,$2,$3*
1,1,$1+$1,$4,$5*
1,1,$1+$1,$6,$7*
1,1,$1+$1,$8,$9*
0 Add four rect primitives between the rounded corners*
20,1,$1+$1,$2,$3,$4,$5,0*
20,1,$1+$1,$4,$5,$6,$7,0*
20,1,$1+$1,$6,$7,$8,$9,0*
20,1,$1+$1,$8,$9,$2,$3,0*%
G04 Aperture macros list end*
%ADD10R,1.800000X1.800000*%
%ADD11C,1.800000*%
%ADD12C,2.000000*%
%ADD13C,4.000000*%
%ADD14R,1.600000X1.600000*%
%ADD15C,1.600000*%
%ADD16RoundRect,0.250000X-1.050000X1.050000X-1.050000X-1.050000X1.050000X-1.050000X1.050000X1.050000X0*%
%ADD17C,2.600000*%
%ADD18R,1.300000X1.300000*%
%ADD19C,1.300000*%
%ADD20R,1.700000X1.700000*%
%ADD21C,1.700000*%
%ADD22RoundRect,0.250000X1.050000X-1.050000X1.050000X1.050000X-1.050000X1.050000X-1.050000X-1.050000X0*%
G04 APERTURE END LIST*
D10*
%TO.C,D6*%
X120535000Y-109988961D03*
D11*
X123075000Y-109988961D03*
%TD*%
D10*
%TO.C,D3*%
X120535000Y-65344872D03*
D11*
X123075000Y-65344872D03*
%TD*%
D12*
%TO.C,BTN2*%
X150000000Y-148750000D03*
X156500000Y-148750000D03*
X150000000Y-153250000D03*
X156500000Y-153250000D03*
%TD*%
D13*
%TO.C,Axis5*%
X132805000Y-94945452D03*
X179905000Y-94945452D03*
D14*
X172975000Y-93525452D03*
D15*
X170205000Y-93525452D03*
X167435000Y-93525452D03*
X164665000Y-93525452D03*
X161895000Y-93525452D03*
X159125000Y-93525452D03*
X156355000Y-93525452D03*
X153585000Y-93525452D03*
X150815000Y-93525452D03*
X148045000Y-93525452D03*
X145275000Y-93525452D03*
X142505000Y-93525452D03*
X139735000Y-93525452D03*
X171590000Y-96365452D03*
X168820000Y-96365452D03*
X166050000Y-96365452D03*
X163280000Y-96365452D03*
X160510000Y-96365452D03*
X157740000Y-96365452D03*
X154970000Y-96365452D03*
X152200000Y-96365452D03*
X149430000Y-96365452D03*
X146660000Y-96365452D03*
X143890000Y-96365452D03*
X141120000Y-96365452D03*
%TD*%
D12*
%TO.C,BTN3*%
X161250000Y-148750000D03*
X167750000Y-148750000D03*
X161250000Y-153250000D03*
X167750000Y-153250000D03*
%TD*%
D13*
%TO.C,Axis1*%
X132830000Y-35420000D03*
X179930000Y-35420000D03*
D14*
X173000000Y-34000000D03*
D15*
X170230000Y-34000000D03*
X167460000Y-34000000D03*
X164690000Y-34000000D03*
X161920000Y-34000000D03*
X159150000Y-34000000D03*
X156380000Y-34000000D03*
X153610000Y-34000000D03*
X150840000Y-34000000D03*
X148070000Y-34000000D03*
X145300000Y-34000000D03*
X142530000Y-34000000D03*
X139760000Y-34000000D03*
X171615000Y-36840000D03*
X168845000Y-36840000D03*
X166075000Y-36840000D03*
X163305000Y-36840000D03*
X160535000Y-36840000D03*
X157765000Y-36840000D03*
X154995000Y-36840000D03*
X152225000Y-36840000D03*
X149455000Y-36840000D03*
X146685000Y-36840000D03*
X143915000Y-36840000D03*
X141145000Y-36840000D03*
%TD*%
D12*
%TO.C,BTN1*%
X138750000Y-148750000D03*
X145250000Y-148750000D03*
X138750000Y-153250000D03*
X145250000Y-153250000D03*
%TD*%
D16*
%TO.C,J1*%
X114672500Y-147955000D03*
D17*
X114672500Y-153035000D03*
%TD*%
D14*
%TO.C,U1*%
X183200000Y-124260000D03*
D15*
X180660000Y-124260000D03*
X178120000Y-124260000D03*
X175580000Y-124260000D03*
X173040000Y-124260000D03*
X170500000Y-124260000D03*
X167960000Y-124260000D03*
X165420000Y-124260000D03*
X162880000Y-124260000D03*
X160340000Y-124260000D03*
X157800000Y-124260000D03*
X155260000Y-124260000D03*
X152720000Y-124260000D03*
X150180000Y-124260000D03*
X147640000Y-124260000D03*
X145100000Y-124260000D03*
X142560000Y-124260000D03*
X140020000Y-124260000D03*
X137480000Y-124260000D03*
X134940000Y-124260000D03*
X132400000Y-124260000D03*
X129860000Y-124260000D03*
X127320000Y-124260000D03*
X124780000Y-124260000D03*
X124780000Y-139500000D03*
X127320000Y-139500000D03*
X129860000Y-139500000D03*
X132400000Y-139500000D03*
X134940000Y-139500000D03*
X137480000Y-139500000D03*
X140020000Y-139500000D03*
X142560000Y-139500000D03*
X145100000Y-139500000D03*
X147640000Y-139500000D03*
X150180000Y-139500000D03*
X152720000Y-139500000D03*
X155260000Y-139500000D03*
X157800000Y-139500000D03*
X160340000Y-139500000D03*
X162880000Y-139500000D03*
X165420000Y-139500000D03*
X167960000Y-139500000D03*
X170500000Y-139500000D03*
X173040000Y-139500000D03*
X175580000Y-139500000D03*
X178120000Y-139500000D03*
X180660000Y-139500000D03*
X183200000Y-139500000D03*
X180660000Y-136960000D03*
X137480000Y-126800000D03*
X137480000Y-129340000D03*
X137480000Y-131880000D03*
X137480000Y-134420000D03*
X137480000Y-136960000D03*
D14*
X176900800Y-127310800D03*
D15*
X174360800Y-127310800D03*
X171820800Y-127310800D03*
X169280800Y-127310800D03*
X166740800Y-127310800D03*
D18*
X170230000Y-137061600D03*
D19*
X170230000Y-135061600D03*
X170230000Y-133061600D03*
X168230000Y-133061600D03*
X168230000Y-135061600D03*
X168230000Y-137061600D03*
X182470000Y-133150000D03*
X182470000Y-130610000D03*
%TD*%
D10*
%TO.C,D1*%
X120535000Y-35582146D03*
D11*
X123075000Y-35582146D03*
%TD*%
D10*
%TO.C,D5*%
X120535000Y-95107598D03*
D11*
X123075000Y-95107598D03*
%TD*%
D20*
%TO.C,J2*%
X126000000Y-151775000D03*
D21*
X126000000Y-149235000D03*
%TD*%
D10*
%TO.C,D2*%
X120535000Y-50463509D03*
D11*
X123075000Y-50463509D03*
%TD*%
D13*
%TO.C,Axis2*%
X132830000Y-50301363D03*
X179930000Y-50301363D03*
D14*
X173000000Y-48881363D03*
D15*
X170230000Y-48881363D03*
X167460000Y-48881363D03*
X164690000Y-48881363D03*
X161920000Y-48881363D03*
X159150000Y-48881363D03*
X156380000Y-48881363D03*
X153610000Y-48881363D03*
X150840000Y-48881363D03*
X148070000Y-48881363D03*
X145300000Y-48881363D03*
X142530000Y-48881363D03*
X139760000Y-48881363D03*
X171615000Y-51721363D03*
X168845000Y-51721363D03*
X166075000Y-51721363D03*
X163305000Y-51721363D03*
X160535000Y-51721363D03*
X157765000Y-51721363D03*
X154995000Y-51721363D03*
X152225000Y-51721363D03*
X149455000Y-51721363D03*
X146685000Y-51721363D03*
X143915000Y-51721363D03*
X141145000Y-51721363D03*
%TD*%
D10*
%TO.C,D4*%
X120535000Y-80226235D03*
D11*
X123075000Y-80226235D03*
%TD*%
D22*
%TO.C,J3*%
X190500000Y-153000000D03*
D17*
X190500000Y-147920000D03*
%TD*%
D13*
%TO.C,Axis6*%
X132805000Y-109826815D03*
X179905000Y-109826815D03*
D14*
X172975000Y-108406815D03*
D15*
X170205000Y-108406815D03*
X167435000Y-108406815D03*
X164665000Y-108406815D03*
X161895000Y-108406815D03*
X159125000Y-108406815D03*
X156355000Y-108406815D03*
X153585000Y-108406815D03*
X150815000Y-108406815D03*
X148045000Y-108406815D03*
X145275000Y-108406815D03*
X142505000Y-108406815D03*
X139735000Y-108406815D03*
X171590000Y-111246815D03*
X168820000Y-111246815D03*
X166050000Y-111246815D03*
X163280000Y-111246815D03*
X160510000Y-111246815D03*
X157740000Y-111246815D03*
X154970000Y-111246815D03*
X152200000Y-111246815D03*
X149430000Y-111246815D03*
X146660000Y-111246815D03*
X143890000Y-111246815D03*
X141120000Y-111246815D03*
%TD*%
D13*
%TO.C,Axis3*%
X132830000Y-65182726D03*
X179930000Y-65182726D03*
D14*
X173000000Y-63762726D03*
D15*
X170230000Y-63762726D03*
X167460000Y-63762726D03*
X164690000Y-63762726D03*
X161920000Y-63762726D03*
X159150000Y-63762726D03*
X156380000Y-63762726D03*
X153610000Y-63762726D03*
X150840000Y-63762726D03*
X148070000Y-63762726D03*
X145300000Y-63762726D03*
X142530000Y-63762726D03*
X139760000Y-63762726D03*
X171615000Y-66602726D03*
X168845000Y-66602726D03*
X166075000Y-66602726D03*
X163305000Y-66602726D03*
X160535000Y-66602726D03*
X157765000Y-66602726D03*
X154995000Y-66602726D03*
X152225000Y-66602726D03*
X149455000Y-66602726D03*
X146685000Y-66602726D03*
X143915000Y-66602726D03*
X141145000Y-66602726D03*
%TD*%
D13*
%TO.C,Axis4*%
X132805000Y-80064089D03*
X179905000Y-80064089D03*
D14*
X172975000Y-78644089D03*
D15*
X170205000Y-78644089D03*
X167435000Y-78644089D03*
X164665000Y-78644089D03*
X161895000Y-78644089D03*
X159125000Y-78644089D03*
X156355000Y-78644089D03*
X153585000Y-78644089D03*
X150815000Y-78644089D03*
X148045000Y-78644089D03*
X145275000Y-78644089D03*
X142505000Y-78644089D03*
X139735000Y-78644089D03*
X171590000Y-81484089D03*
X168820000Y-81484089D03*
X166050000Y-81484089D03*
X163280000Y-81484089D03*
X160510000Y-81484089D03*
X157740000Y-81484089D03*
X154970000Y-81484089D03*
X152200000Y-81484089D03*
X149430000Y-81484089D03*
X146660000Y-81484089D03*
X143890000Y-81484089D03*
X141120000Y-81484089D03*
%TD*%
M02*
